<?xml version="1.0" standalone="no"?>
<!DOCTYPE svg PUBLIC "-//W3C//DTD SVG 1.1//EN" "http://www.w3.org/Graphics/SVG/1.1/DTD/svg11.dtd" >
<svg xmlns="http://www.w3.org/2000/svg" xmlns:xlink="http://www.w3.org/1999/xlink" version="1.1">
<metadata></metadata>
<defs>
<font id="pf_bague_sans_proregular" horiz-adv-x="1122" >
<font-face units-per-em="2048" ascent="1638" descent="-410" />
<missing-glyph horiz-adv-x="491" />
<glyph horiz-adv-x="0" />
<glyph horiz-adv-x="682" />
<glyph unicode=" "  horiz-adv-x="491" />
<glyph unicode="&#x09;" horiz-adv-x="491" />
<glyph unicode="&#xa0;" horiz-adv-x="491" />
<glyph unicode="!" horiz-adv-x="583" d="M186 84q0 44 31.5 75t75.5 31q43 0 73.5 -31t30.5 -75q0 -43 -30.5 -72.5t-73.5 -29.5q-44 0 -75.5 29.5t-31.5 72.5zM209 1413h166l-21 -1085h-121q-24 1079 -24 1085z" />
<glyph unicode="&#x22;" horiz-adv-x="614" d="M137 956v441h125v-441h-125zM352 956v441h125v-441h-125z" />
<glyph unicode="#" horiz-adv-x="1067" d="M53 416v90h189q9 50 39 182l34 152h-188v88h207q5 21 32.5 139t49.5 217h100l-80 -356h305l80 356h103l-45 -194l-35 -162h168v-88h-189l-73 -334h182v-90h-203l-90 -416h-102l92 416h-305l-93 -416h-100q9 51 51 236q31 139 41 180h-170zM344 506h305q58 260 72 334 h-303l-43 -191z" />
<glyph unicode="$" d="M143 98v148q188 -129 389 -129q144 0 223 62t79 169q0 91 -64.5 162t-169.5 117q-16 7 -56 25l-60 27t-57.5 28t-58.5 31.5t-52 34t-48.5 39t-39 43t-32 50t-18 55.5t-6.5 64q0 143 90 228.5t244 103.5v200h115v-198q146 -9 284 -76v-149q-150 102 -325 102 q-258 0 -258 -215q0 -113 235 -219q73 -31 119 -53t112 -63.5t104.5 -82t67 -101.5t27.5 -130q0 -159 -98 -257.5t-268 -117.5v-197h-115v193q-220 12 -363 106z" />
<glyph unicode="%" horiz-adv-x="1503" d="M72 1055q0 136 94 227q94 94 231 94q141 0 230 -92q90 -93 90 -229q0 -135 -92 -230q-89 -92 -228 -92q-147 0 -236 90t-89 232zM178 -43l1022 1440h115l-1022 -1440h-115zM199 1055q0 -94 53.5 -153.5t144.5 -59.5q85 0 140 62t55 151q0 88 -55.5 149.5t-139.5 61.5 q-87 0 -142.5 -61t-55.5 -150zM793 303q0 137 92 232q91 94 231 94q141 0 230 -92q92 -92 92 -230q0 -134 -92 -229q-92 -92 -230 -92q-148 0 -235.5 88t-87.5 229zM920 307q0 -94 53.5 -153.5t142.5 -59.5q86 0 141.5 62t55.5 151t-56 150t-141 61q-84 0 -140 -61t-56 -150 z" />
<glyph unicode="&#x26;" horiz-adv-x="1411" d="M127 313q0 123 78 238t213 170q-60 138 -60 256q0 159 103 268q106 109 299 109q141 0 278 -58l-4 -135q-131 64 -268 64q-129 0 -191.5 -69t-62.5 -185q0 -152 114 -329t320 -353q136 169 199 456q49 -23 119 -63q-77 -301 -217 -475q153 -121 352 -227l-119 -89 q-173 96 -334 218q-173 -144 -411 -144q-189 0 -298.5 93.5t-109.5 254.5zM276 334q0 -114 77.5 -180t199.5 -66q163 0 289 102q-244 213 -363 416q-90 -35 -146.5 -111t-56.5 -161z" />
<glyph unicode="'" horiz-adv-x="417" d="M145 956v441h127v-441h-127z" />
<glyph unicode="(" horiz-adv-x="606" d="M150 627q0 471 329 880l90 -32q-278 -404 -278 -850q0 -448 274 -854l-90 -39q-153 191 -239 428.5t-86 466.5z" />
<glyph unicode=")" horiz-adv-x="606" d="M49 1475l90 32q330 -410 330 -880q0 -229 -86 -466t-240 -429l-90 39q275 411 275 854q0 445 -279 850z" />
<glyph unicode="*" horiz-adv-x="905" d="M147 977l224 92q-42 20 -125 55q-90 38 -99 43l68 119l191 -143l-23 237h135l-29 -237l197 141l66 -117l-217 -94l219 -94l-68 -121l-194 143l28 -241h-133l27 239q-47 -33 -90 -64.5t-71.5 -52.5t-35.5 -26q-2 3 -41 70q-7 13 -14.5 26t-10.5 18.5t-4 6.5z" />
<glyph unicode="+" d="M164 553v111h340v340h112v-340h338v-111h-338v-346h-112v346h-340z" />
<glyph unicode="," horiz-adv-x="387" d="M61 -287l86 285q-63 21 -63 96q0 45 32 77t79 32q45 0 75.5 -30t30.5 -79q0 -65 -51 -182q-56 -127 -107 -209z" />
<glyph unicode="-" horiz-adv-x="770" d="M121 436v127h526v-127h-526z" />
<glyph unicode="." horiz-adv-x="376" d="M82 90q0 44 30.5 75.5t73.5 31.5q44 0 75.5 -31.5t31.5 -75.5t-32 -75t-75 -31t-73.5 31t-30.5 75z" />
<glyph unicode="/" horiz-adv-x="630" d="M-57 -180l641 1589h123l-646 -1589h-118z" />
<glyph unicode="0" d="M68 674q0 256 90 456q52 115 155 180.5t246 65.5q114 0 206 -45t146 -117q52 -70 86 -167q54 -165 54 -373t-58 -367q-110 -327 -436 -327q-112 0 -201.5 42t-146.5 113q-51 65 -86 162q-55 165 -55 377zM225 674q0 -568 334 -568q81 0 143.5 37.5t100.5 98.5 q34 58 55 137q35 120 35 295q0 174 -35 297q-70 276 -299 276q-101 0 -173 -55.5t-105 -151.5q-56 -171 -56 -366z" />
<glyph unicode="1" d="M229 926v157l451 279h29v-1362h-160v1110z" />
<glyph unicode="2" d="M80 20q3 251 121 392q59 70 129 127q66 54 178 123l108 71q35 21 95 72q114 95 114 207q0 114 -75.5 175.5t-202.5 61.5q-121 0 -193.5 -74.5t-72.5 -193.5q0 -43 12 -98l-154 24q-10 45 -10 103q0 163 125 264q125 104 299 104q182 0 307 -94q127 -92 127 -268 q0 -219 -321 -412q-21 -13 -72 -45t-70 -45q-69 -51 -118 -96q-137 -120 -146 -295h741v-123h-888z" />
<glyph unicode="3" d="M51 96v160q172 -147 402 -147q165 0 258.5 90.5t93.5 240.5q0 141 -107 217q-107 78 -252 78q-78 0 -133 -14l-16 27l397 475q0 1 -1 4t-1 4h-588v121h840v-25l-409 -489q196 -6 308.5 -116t112.5 -298q0 -200 -143 -322q-141 -120 -350 -120q-246 0 -412 114z" />
<glyph unicode="4" d="M16 344v29l686 981h179l-631 -889h491v319l123 170h29v-489h176v-121h-176v-344h-152v344h-725z" />
<glyph unicode="5" d="M113 96v162q64 -67 172.5 -109.5t222.5 -42.5q154 0 256 91q98 88 98 227q0 149 -93 227t-255 78q-173 0 -321 -86l-27 10l90 699h707v-119h-582l-53 -426q85 39 223 39q198 0 330 -111q135 -111 135 -313t-144 -322q-142 -118 -354 -118q-236 0 -405 114z" />
<glyph unicode="6" d="M86 412q0 174 119 366l350 574h170l-352 -570q4 -4 8 -4q70 58 209 58q192 0 317 -119q125 -116 125 -305q0 -193 -133 -314q-130 -118 -338 -118q-218 0 -346 116q-129 120 -129 316zM240 414q0 -137 87 -223.5t234 -86.5q146 0 232 86.5t86 223.5q0 135 -86 220 t-230 85q-142 0 -232.5 -83t-90.5 -222z" />
<glyph unicode="7" d="M133 1231v121h858v-31l-590 -1321h-155l551 1231h-664z" />
<glyph unicode="8" d="M94 369q0 114 63 206.5t171 133.5l2 8q-93 42 -139 121.5t-46 175.5q0 161 119 262q118 100 299 100q177 0 295 -100q121 -103 121 -262q0 -95 -51.5 -173t-136.5 -110v-8q239 -94 239 -348q0 -180 -131 -287q-132 -108 -336 -108q-209 0 -340 104q-129 108 -129 285z M248 385q0 -124 85.5 -202.5t229.5 -78.5q141 0 227.5 79t86.5 202t-84.5 198.5t-229.5 75.5q-140 0 -227.5 -77.5t-87.5 -196.5zM299 1006q0 -103 75 -170.5t191 -67.5q115 0 189.5 67.5t74.5 170.5q0 105 -74 173t-192 68q-116 0 -190 -68t-74 -173z" />
<glyph unicode="9" d="M90 940q0 194 131 313q133 121 338 121q215 0 340 -119q129 -120 129 -315q0 -168 -117 -362l-348 -578h-170l350 569l-8 6q-69 -57 -209 -57q-190 0 -313 117q-123 120 -123 305zM244 938q0 -132 85.5 -216.5t225.5 -84.5q142 0 230.5 81.5t88.5 219.5q0 137 -85 223 t-230 86q-144 0 -229.5 -86t-85.5 -223z" />
<glyph unicode=":" horiz-adv-x="425" d="M104 92q0 44 31.5 75.5t75.5 31.5t75 -31.5t31 -75.5q0 -43 -31.5 -73.5t-74.5 -30.5q-44 0 -75.5 30.5t-31.5 73.5zM106 713q0 44 31 75t74 31q44 0 75 -31t31 -75q0 -43 -31 -74t-75 -31q-43 0 -74 31t-31 74z" />
<glyph unicode=";" horiz-adv-x="446" d="M88 -287l86 285q-63 21 -63 96q0 45 31.5 77t78.5 32q45 0 76 -30.5t31 -78.5q0 -63 -52 -182q-58 -132 -106 -209zM125 713q0 44 30.5 75t73.5 31q44 0 75.5 -31t31.5 -75q0 -43 -32 -74t-75 -31t-73.5 31t-30.5 74z" />
<glyph unicode="&#x3c;" d="M158 594v22l807 441v-137l-588 -314l588 -319v-135z" />
<glyph unicode="=" d="M156 385v109h809v-109h-809zM156 713v110h809v-110h-809z" />
<glyph unicode="&#x3e;" d="M158 152v135l587 319l-587 314v137l807 -441v-22z" />
<glyph unicode="?" horiz-adv-x="1021" d="M127 1198v150q153 69 322 69q183 0 305 -98q125 -94 125 -262q0 -86 -43 -168t-113 -148q-26 -24 -75 -67t-78.5 -70t-62.5 -62.5t-49 -67.5t-16 -62q0 -44 25 -80l-141 -35q-33 65 -33 123q0 125 147 254q9 8 41 34.5t44 37t40.5 36t40.5 39.5t34 38.5t32 43.5t22 43 t16.5 47.5t4.5 48.5q0 105 -76 170.5t-207 65.5q-140 0 -305 -80zM303 84q0 44 30.5 74t74.5 30t74 -30t30 -74t-30.5 -74t-73.5 -30q-44 0 -74.5 30t-30.5 74z" />
<glyph unicode="@" horiz-adv-x="1818" d="M168 616q0 320 225 545t549 225q315 0 510 -192q197 -191 197 -475q0 -174 -97 -309q-95 -129 -252 -129q-91 0 -143 38.5t-63 98.5l-9 4q-103 -115 -256 -115q-127 0 -196.5 64t-69.5 151q0 248 361 248h155v33q0 170 -194 170q-106 0 -238 -72v119q107 61 256 61 q161 0 235 -74t74 -223v-247q0 -78 21 -110t80 -32q98 0 155 97q56 95 56 227q0 236 -162 391q-165 160 -418 160q-275 0 -463 -191q-188 -188 -188 -463q0 -268 176 -444q174 -174 453 -174q260 0 452 160v-142q-194 -135 -452 -135q-336 0 -545 209t-209 526zM698 537 q0 -59 46.5 -91t123.5 -32q101 0 156 58t55 153v55h-139q-242 0 -242 -143z" />
<glyph unicode="A" horiz-adv-x="1277" d="M29 0l598 1366h30l594 -1366h-168l-129 305h-637l-127 -305h-161zM369 426h536l-264 618h-8z" />
<glyph unicode="B" horiz-adv-x="1255" d="M166 0v1356h508q180 0 287.5 -86.5t107.5 -243.5q0 -89 -47 -167t-131 -120v-8q125 -35 190.5 -128t65.5 -212q0 -170 -121 -282q-121 -109 -303 -109h-557zM328 139h362q164 0 230 78q67 79 67 184q0 117 -85.5 187.5t-231.5 70.5h-342v-520zM328 786h325q32 0 64 5.5 t67.5 21.5t62.5 40t44.5 64t17.5 91q0 97 -63.5 154t-175.5 57h-342v-433z" />
<glyph unicode="C" horiz-adv-x="1257" d="M109 670q0 303 200 506q199 202 504 202q219 0 338 -61v-152q-147 72 -320 72q-235 0 -395 -154q-157 -154 -157 -413q0 -251 143 -400t399 -149q195 0 381 104v-151q-155 -94 -397 -94q-329 0 -512 192q-184 193 -184 498z" />
<glyph unicode="D" horiz-adv-x="1400" d="M164 0v1354h463q306 0 485 -185q180 -183 180 -487q0 -307 -172 -494q-173 -188 -471 -188h-485zM328 139h321q239 3 359 150q122 146 122 391q0 237 -126 387t-373 150h-303v-1078z" />
<glyph unicode="E" horiz-adv-x="1144" d="M164 0v1354h864v-137h-698v-437h645v-135h-645v-506h749v-139h-915z" />
<glyph unicode="F" horiz-adv-x="1067" d="M164 0v1354h870v-137h-704v-480h639v-137h-639v-600h-166z" />
<glyph unicode="G" horiz-adv-x="1370" d="M106 668q0 305 203 508q201 204 510 204q231 0 365 -73v-156q-164 86 -357 86q-237 0 -393 -156q-158 -155 -158 -413q0 -243 140 -398q139 -151 397 -151q145 0 272 53v502h154v-611q-169 -81 -453 -81q-319 0 -501 194q-179 194 -179 492z" />
<glyph unicode="H" horiz-adv-x="1380" d="M164 0v1354h166v-572h723v572h161v-1354h-161v643h-723v-643h-166z" />
<glyph unicode="I" horiz-adv-x="532" d="M182 0v1354h164v-1354h-164z" />
<glyph unicode="J" horiz-adv-x="937" d="M23 41v158q54 -34 132.5 -56t141.5 -22q184 0 246 96q63 92 63 279v858h166v-824q0 -93 -8 -157.5t-33 -139.5q-37 -119 -138.5 -183t-285.5 -70q-171 0 -284 61z" />
<glyph unicode="K" horiz-adv-x="1220" d="M164 0v1354h166v-637l622 637h191l-631 -652l688 -702h-221l-649 688v-688h-166z" />
<glyph unicode="L" horiz-adv-x="1058" d="M164 0v1354h166v-1215h706v-139h-872z" />
<glyph unicode="M" horiz-adv-x="1669" d="M164 0v1364h35l637 -860l632 860h35v-1364h-157v479q2 211 2 482l-7 4l-491 -672h-33l-491 655l-4 -4v-944h-158z" />
<glyph unicode="N" horiz-adv-x="1476" d="M164 0v1370h37l940 -1030h8v1014h162v-1364h-37l-942 1034h-6v-1024h-162z" />
<glyph unicode="O" horiz-adv-x="1617" d="M106 676q0 293 205 495q205 205 500 205q301 0 500 -202q198 -198 198 -498t-198 -498q-195 -198 -500 -198q-326 0 -516 196q-189 198 -189 500zM276 676q0 -242 146 -400q143 -155 389 -155q237 0 385 160q150 163 150 395q0 234 -152 395q-149 162 -383 162t-385 -160 q-150 -159 -150 -397z" />
<glyph unicode="P" horiz-adv-x="1167" d="M162 0v1352h463q227 0 354 -133q129 -132 129 -314q0 -205 -139 -332q-136 -124 -344 -124h-295v-449h-168zM328 588h278q163 0 246 92q84 96 84 221q0 130 -90 223q-89 95 -266 95h-252v-631z" />
<glyph unicode="Q" horiz-adv-x="1619" d="M109 684q0 293 202 492q206 200 500 200q304 0 500 -202q198 -198 198 -498q0 -232 -129 -414q-126 -181 -342 -246l-4 -8q340 -72 484 -104q-52 -144 -54 -156l-766 240q-279 30 -434 223q-155 192 -155 473zM276 676q0 -242 146 -400q143 -155 391 -155q237 0 385 160 q150 163 150 395q0 234 -152 395q-149 162 -383 162q-236 0 -385 -162q-152 -161 -152 -395z" />
<glyph unicode="R" horiz-adv-x="1228" d="M162 0v1352h483q191 0 328 -113q141 -111 141 -309q0 -145 -98 -264q-98 -115 -271 -162l443 -504h-205l-479 567v27q210 7 327 98.5t117 225.5q0 140 -89 220.5t-238 80.5h-293v-1219h-166z" />
<glyph unicode="S" horiz-adv-x="1019" d="M70 88v162q189 -133 395 -133q146 0 232.5 58.5t86.5 170.5q0 95 -66.5 167t-176.5 118q-17 8 -53 23q-53 22 -81 34.5t-77 37t-76 43.5t-62 49t-53 59.5t-31 68.5q-12 36 -12 76v6q0 167 121 256q124 92 289 92q199 0 358 -84v-157q-152 104 -334 104q-118 0 -192 -52.5 t-74 -152.5q0 -125 242 -225q73 -29 122 -51.5t115.5 -63.5t107 -84.5t69.5 -107.5q28 -62 28 -135q0 -188 -124 -287.5t-337 -99.5q-247 0 -417 108z" />
<glyph unicode="T" horiz-adv-x="1089" d="M29 1217v139h1030v-139h-430v-1217h-166v1217h-434z" />
<glyph unicode="U" horiz-adv-x="1396" d="M164 504v850h164v-838q0 -170 94 -283q94 -110 276 -110q179 0 275 105t96 280v846h162v-852q0 -233 -141 -377q-142 -145 -392 -145q-251 0 -392.5 141t-141.5 383z" />
<glyph unicode="V" horiz-adv-x="1202" d="M18 1350h170l412 -1014h10l408 1014h164l-561 -1360h-33z" />
<glyph unicode="W" horiz-adv-x="1851" d="M18 1350h166l365 -973h4l356 985h31l363 -985h4l360 973h164l-510 -1360h-31l-362 999h-6l-365 -999h-31z" />
<glyph unicode="X" horiz-adv-x="1273" d="M18 0l469 698l-434 654h176l410 -625l401 625h181l-441 -654l473 -698h-184l-430 670l-442 -670h-179z" />
<glyph unicode="Y" horiz-adv-x="1140" d="M18 1354h183l231 -379l154 -246h8l139 244l215 381h174l-452 -768v-586h-164v586z" />
<glyph unicode="Z" horiz-adv-x="1062" d="M39 0v20l727 1197h-645v137h895v-23l-721 -1194h721v-137h-977z" />
<glyph unicode="[" horiz-adv-x="542" d="M147 -250v1747h332v-106h-196v-1536h196v-105h-332z" />
<glyph unicode="\" horiz-adv-x="630" d="M-57 1409h120l644 -1589h-121z" />
<glyph unicode="]" horiz-adv-x="542" d="M63 -145h197v1536h-197v106h332v-1747h-332v105z" />
<glyph unicode="^" horiz-adv-x="985" d="M49 700l424 646h39l420 -646h-135l-305 471l-312 -471h-131z" />
<glyph unicode="_" horiz-adv-x="1038" d="M8 -162h1020v-92h-1020v92z" />
<glyph unicode="`" horiz-adv-x="978" d="M229 1354l148 49l219 -324h-111z" />
<glyph unicode="a" horiz-adv-x="1026" d="M88 242q0 150 107 232.5t315 82.5h217v31q0 223 -250 223q-139 0 -293 -86v131q141 78 314 78q198 0 290.5 -91.5t92.5 -273.5v-569h-111l-20 121h-5q-111 -141 -335 -141q-170 0 -246 79q-76 82 -76 183zM242 258q0 -76 60 -119t155 -43q125 0 197.5 81.5t72.5 203.5v63 h-217q-268 0 -268 -186z" />
<glyph unicode="b" horiz-adv-x="1161" d="M119 0v1456h151v-678h6q58 77 148 116.5t188 39.5q204 0 330 -135q127 -136 127 -344q0 -203 -133 -342q-132 -138 -340 -138q-108 0 -200.5 42.5t-135.5 119.5h-6l-29 -137h-106zM274 453q0 -155 87.5 -251t228.5 -96q147 0 235 101q90 104 90 246q0 143 -90 247 q-88 101 -233 101q-144 0 -232 -101q-86 -103 -86 -247z" />
<glyph unicode="c" horiz-adv-x="888" d="M94 446q0 211 135 349q136 139 340 139q136 0 232 -41v-139q-86 53 -209 53q-146 0 -244 -98q-96 -96 -96 -260q0 -154 91.5 -247t246.5 -93q148 0 246 67v-137q-103 -59 -279 -59q-223 0 -342 131q-121 133 -121 335z" />
<glyph unicode="d" horiz-adv-x="1163" d="M92 442q0 211 129 349q129 141 332 141q207 0 330 -129l10 4v647h151v-1454h-112l-25 129l-10 4q-54 -76 -147 -117t-199 -41q-205 0 -332 127t-127 340zM244 451q0 -154 87.5 -249.5t235.5 -95.5q141 0 232 101q92 103 92 248q0 147 -88 245q-88 101 -240 101 q-142 0 -231 -103q-88 -101 -88 -247z" />
<glyph unicode="e" horiz-adv-x="1064" d="M94 459q0 199 127 338q128 137 324 137q194 0 309 -133t115 -334q0 -33 -2 -41h-713q3 -152 98 -238t232 -86q193 0 344 115v-137q-135 -100 -346 -100q-228 0 -359 131q-129 132 -129 348zM256 537h567q-18 127 -89 199.5t-185 72.5q-118 0 -197 -74t-96 -198z" />
<glyph unicode="f" horiz-adv-x="630" d="M10 788v97l164 26v191q0 180 86.5 281.5t263.5 101.5q74 0 160 -25v-129q-76 29 -156 29q-200 0 -200 -252v-197h274v-123h-274v-788h-154v788h-164z" />
<glyph unicode="g" horiz-adv-x="1032" d="M57 182l170 156q-100 87 -100 248q0 147 104 245q107 101 267 101q61 0 147 -25h307v-84l-172 -22q90 -87 90 -217q0 -142 -104 -240q-101 -98 -262 -98q-119 0 -193 45l-86 -109l457 -51q252 -27 252 -229q0 -125 -125 -238q-124 -115 -346 -115q-188 0 -288.5 76 t-100.5 191q0 149 143 250l-59 6q-101 9 -101 110zM221 -143q0 -83 59 -132t181 -49q156 0 235 76q82 73 82 160q0 89 -131 104l-340 39q-86 -89 -86 -198zM272 590q0 -104 62.5 -168t165.5 -64q104 0 166.5 65t62.5 165q0 97 -65.5 163t-163.5 66t-163 -65t-65 -162z" />
<glyph unicode="h" horiz-adv-x="1083" d="M123 0v1456h151v-676h7q123 150 313 150q164 0 255 -100t91 -277v-553h-156v541q0 125 -56.5 192.5t-160.5 67.5q-129 0 -207.5 -86t-78.5 -246v-469h-158z" />
<glyph unicode="i" horiz-adv-x="483" d="M145 1190q0 38 30.5 68t68.5 30q41 0 68.5 -28.5t27.5 -69.5t-27.5 -68.5t-68.5 -27.5q-43 0 -71 27.5t-28 68.5zM162 0v911h155v-911h-155z" />
<glyph unicode="j" horiz-adv-x="452" d="M-104 -334q139 6 196.5 76.5t57.5 222.5v946h153v-952q0 -403 -344 -426zM131 1190q0 38 30 67t68 29q41 0 69 -27.5t28 -68.5t-28 -68.5t-69 -27.5q-43 0 -70.5 27.5t-27.5 68.5z" />
<glyph unicode="k" horiz-adv-x="987" d="M127 0v1456h154v-962l460 415h191l-475 -428l518 -481h-207l-487 459v-459h-154z" />
<glyph unicode="l" horiz-adv-x="440" d="M145 0v1456h156v-1456h-156z" />
<glyph unicode="m" horiz-adv-x="1677" d="M143 0v909h109l24 -131q2 -2 9 -2q57 78 140.5 117t170.5 39q211 0 287 -180q54 89 136 135.5t171 46.5q344 0 344 -379v-555h-154v551q0 252 -213 252q-110 0 -179.5 -85t-69.5 -249v-469h-156v549q0 254 -203 254q-116 0 -189 -88.5t-73 -245.5v-469h-154z" />
<glyph unicode="n" horiz-adv-x="1097" d="M143 0v911h105l28 -135h9q126 156 317 156q172 0 262 -97.5t90 -281.5v-553h-153v537q0 124 -57.5 195t-157.5 71q-129 0 -209 -87.5t-80 -246.5v-469h-154z" />
<glyph unicode="o" horiz-adv-x="1150" d="M94 457q0 199 139 338t345 139q210 0 344 -137q135 -138 135 -340q0 -203 -137 -340q-134 -137 -342 -137q-221 0 -353 135q-131 134 -131 342zM252 459q0 -156 88 -253t238 -97t237 100q88 101 88 250q0 142 -90 246q-87 100 -235 100q-149 0 -236 -100 q-90 -104 -90 -246z" />
<glyph unicode="p" horiz-adv-x="1163" d="M123 -440v1353h108l27 -133h8q54 76 147 117t199 41q206 0 332 -129q127 -127 127 -340q0 -210 -129 -348q-130 -139 -332 -139q-213 0 -331 124l-9 -2v-544h-147zM272 459q0 -147 88 -248q88 -98 240 -98q155 0 236 100q84 104 84 250q0 154 -88 249t-236 95 q-139 0 -231 -102q-93 -104 -93 -246z" />
<glyph unicode="q" horiz-adv-x="1161" d="M92 453q0 209 133 348q131 137 340 137q216 0 336 -156h6l29 131h102v-1353h-147v563h-6q-119 -143 -336 -143q-207 0 -332 131t-125 342zM246 461q0 -154 88 -252t235 -98q145 0 230 102q88 101 88 250q0 155 -87.5 249.5t-228.5 94.5q-148 0 -235 -100 q-90 -104 -90 -246z" />
<glyph unicode="r" horiz-adv-x="669" d="M143 0v909h109l27 -159q2 -2 6 -2q91 184 297 184q45 0 75 -10v-146q-46 15 -98 15q-118 0 -190 -99t-72 -256v-436h-154z" />
<glyph unicode="s" horiz-adv-x="770" d="M49 57v140q142 -103 295 -103q209 0 209 144q0 43 -26 76.5t-67.5 56.5t-92 44t-100.5 44.5t-91.5 52t-67.5 72t-26 98.5q0 118 86.5 184t220.5 66q137 0 270 -62v-133q-138 78 -249 78q-174 0 -174 -129q0 -78 163 -141q44 -17 70.5 -28t67 -31t65.5 -41t50.5 -49.5 t37.5 -65t12 -78.5q0 -124 -93.5 -197t-248.5 -73q-185 0 -311 75z" />
<glyph unicode="t" horiz-adv-x="679" d="M47 788v95l158 37q15 43 53 133q38 94 53 139h41v-281h256v-123h-256v-507q0 -85 30 -125.5t101 -40.5q86 0 168 55v-129q-83 -59 -196 -59q-169 0 -217 104q-24 54 -32.5 111.5t-8.5 152.5v438h-150z" />
<glyph unicode="u" horiz-adv-x="1079" d="M143 360v553h154v-536q0 -124 57.5 -195t157.5 -71q128 0 199 85.5t71 258.5v456h154v-911h-105l-32 125h-8q-113 -143 -295 -143q-353 0 -353 378z" />
<glyph unicode="v" horiz-adv-x="972" d="M27 911h168l290 -639h7l288 639h164l-446 -923h-31z" />
<glyph unicode="w" horiz-adv-x="1470" d="M25 911h159l248 -620h6l289 633h23l292 -633h9l247 620h154l-385 -927h-29l-301 657h-4l-297 -657h-30z" />
<glyph unicode="x" horiz-adv-x="956" d="M18 0l316 467l-297 444h166l276 -417l275 417h166l-299 -442l315 -469h-170l-287 440l-295 -440h-166z" />
<glyph unicode="y" horiz-adv-x="925" d="M20 911h158l279 -704h10l287 704h151l-565 -1351h-152l201 477z" />
<glyph unicode="z" horiz-adv-x="851" d="M29 0v23l546 765h-481v123h709v-22l-541 -768h531v-121h-764z" />
<glyph unicode="{" horiz-adv-x="620" d="M111 659v33q131 27 131 221v207q0 20 -2 49q0 81 6 140q4 44 15 71t34 62q40 61 135 61h117v-108h-70q-57 0 -78.5 -35.5t-21.5 -112.5v-325q0 -198 -113 -238v-10q66 -35 89.5 -106t23.5 -206v-360q0 -147 96 -147h74v-109h-109q-117 -10 -176 107q-15 29 -22 135v71 q2 35 2 62v305q0 206 -131 233z" />
<glyph unicode="|" horiz-adv-x="557" d="M215 -285v1831h127v-1831h-127z" />
<glyph unicode="}" horiz-adv-x="620" d="M74 -145h73q97 0 97 147v360q0 137 23 207t91 105v10q-114 40 -114 238v325q0 77 -21.5 112.5t-79.5 35.5h-69v108h116q104 0 148 -69q21 -31 29 -74q14 -59 14 -152v-295q0 -190 129 -217v-32q-129 -27 -129 -246v-385q0 -99 -16 -156q-31 -131 -183 -131h-108v109z" />
<glyph unicode="~" horiz-adv-x="1032" d="M45 580q92 188 258 188q79 0 223 -63q149 -64 199 -64q53 0 93 31t83 100l86 -70q-86 -188 -258 -188q-78 0 -227 61q-149 64 -199 64q-89 0 -172 -127z" />
<glyph unicode="&#xa2;" horiz-adv-x="1067" d="M182 621q0 184 109 317q111 136 282 162v223h113v-215q131 -10 203 -41v-139q-86 53 -213 53q-148 0 -242 -98q-96 -96 -96 -260q0 -152 90 -248q89 -92 246 -92q156 0 250 67v-137q-83 -47 -238 -59v-215h-113v219q-186 20 -288.5 145t-102.5 318z" />
<glyph unicode="&#xa3;" d="M152 0v27q189 213 192 608h-160v104h160l2 191q0 105 29.5 186.5t73 127t102 74.5t108 38.5t99.5 9.5q123 0 213 -41v-133q-110 43 -199 43q-125 0 -198.5 -76t-73.5 -233v-187h358v-104h-360q-3 -345 -129 -512h616v-123h-833z" />
<glyph unicode="&#xa5;" d="M78 1354h180l317 -649h7l327 649h168l-383 -699h338v-84h-901v84h326zM131 377v84h901v-84h-375v-377h-163v377h-363z" />
<glyph unicode="&#xa8;" horiz-adv-x="991" d="M223 1206q0 36 27.5 62t64.5 26t61.5 -25.5t24.5 -62.5q0 -38 -24.5 -63t-61.5 -25q-41 0 -66.5 24.5t-25.5 63.5zM565 1206q0 36 26 62t62 26q38 0 63 -25.5t25 -62.5q5 -54 -41.5 -76.5t-93 0t-41.5 76.5z" />
<glyph unicode="&#xa9;" horiz-adv-x="1728" d="M115 719q0 314 219 530q218 215 534 215q302 0 518 -219q218 -218 218 -526q0 -311 -220 -531q-219 -219 -526 -219q-311 0 -528 217q-215 218 -215 533zM215 719q0 -271 186 -463q187 -190 457 -190q268 0 455 190q188 194 188 463q0 268 -186 457q-186 192 -449 192 q-276 0 -463 -190q-188 -188 -188 -459zM406 696q0 213 139 355q137 143 352 143q129 0 225 -41v-111q-94 48 -211 48q-161 0 -268 -107q-108 -108 -108 -287q0 -165 104 -272t268 -107q142 0 248 62v-107q-96 -57 -262 -57q-233 0 -361 131q-126 132 -126 350z" />
<glyph unicode="&#xab;" horiz-adv-x="880" d="M86 401v19l276 368h156l-280 -372l280 -385h-160zM383 401v19l276 368h154l-278 -372l278 -385h-160z" />
<glyph unicode="&#xad;" horiz-adv-x="770" d="M121 436v127h526v-127h-526z" />
<glyph unicode="&#xae;" horiz-adv-x="1239" d="M127 938q0 205 143 348q146 146 348 146q212 0 353 -144t141 -350q0 -205 -145 -350q-144 -144 -349 -144q-219 0 -356 140q-135 141 -135 354zM207 938q0 -176 115 -297q118 -121 296 -121q171 0 291 123q121 124 121 295q0 172 -121 293q-120 123 -291 123 q-172 0 -292 -123q-119 -119 -119 -293zM430 659v576h203q86 0 148.5 -48.5t62.5 -131.5q0 -60 -40 -105t-112 -65l187 -226h-113l-199 259v18q187 6 187 111q0 54 -36 82t-95 28h-103v-498h-90z" />
<glyph unicode="&#xb4;" horiz-adv-x="978" d="M391 1079l221 324l146 -49l-254 -275h-113z" />
<glyph unicode="&#xb8;" horiz-adv-x="880" d="M268 -326q79 -36 166 -36q59 0 93 24.5t34 63.5q0 41 -35.5 63.5t-89.5 22.5q-28 0 -65 -11l-39 27l106 221l88 -6l-73 -145q115 -1 173 -47t58 -117q0 -81 -68 -135t-178 -54q-88 0 -170 33v96z" />
<glyph unicode="&#xbb;" horiz-adv-x="880" d="M84 31l278 385l-278 372h154l276 -368v-19l-270 -370h-160zM379 31l280 385l-280 372h156l276 -368v-19l-272 -370h-160z" />
<glyph unicode="&#x2c6;" horiz-adv-x="978" d="M172 1077l291 307h35l280 -307h-153l-150 164l-156 -164h-147z" />
<glyph unicode="&#x2da;" horiz-adv-x="980" d="M303 1262q0 81 56.5 137.5t136.5 56.5q85 0 140.5 -54.5t55.5 -139.5q0 -79 -56 -133t-140 -54q-86 0 -139.5 53t-53.5 134zM393 1262q0 -44 28.5 -73.5t74.5 -29.5t75 30t29 73q0 46 -29 78t-75 32q-42 0 -72.5 -32.5t-30.5 -77.5z" />
<glyph unicode="&#x2dc;" horiz-adv-x="978" d="M186 1169q62 152 174 152q52 0 138 -51q88 -49 120 -49q61 0 113 110l62 -76q-55 -149 -170 -149q-50 0 -138 49t-120 49q-62 0 -111 -110z" />
<glyph unicode="&#x401;" horiz-adv-x="1144" d="M164 0v1354h864v-137h-698v-437h645v-135h-645v-506h749v-139h-915zM348 1627q0 34 25.5 61.5t62.5 27.5q38 0 63 -25.5t25 -62.5q0 -60 -54.5 -83t-98.5 18q-23 30 -23 64zM690 1627q0 34 24.5 61.5t61.5 27.5q38 0 63 -25.5t25 -62.5q0 -38 -27 -64t-60.5 -26t-63.5 25 q-23 30 -23 64z" />
<glyph unicode="&#x402;" horiz-adv-x="1619" d="M29 1217v139h1071v-139h-471v-443q191 78 368 78q246 0 383 -143q140 -143 140 -357q0 -202 -102 -363.5t-275 -236.5l-117 84q326 156 326 500q0 164 -101 274q-102 111 -290 111q-164 0 -332 -70v-651h-166v1217h-434z" />
<glyph unicode="&#x403;" horiz-adv-x="1067" d="M164 0v1354h870v-137h-704v-1217h-166zM446 1493l254 299l156 -51l-287 -248h-123z" />
<glyph unicode="&#x404;" horiz-adv-x="1257" d="M106 670q0 302 201 506q199 202 504 202q217 0 340 -63v-150q-156 72 -322 72q-209 0 -358 -125q-152 -125 -182 -334h688v-131h-698q3 -241 147 -385q144 -141 395 -141q199 0 379 104v-151q-154 -92 -397 -92q-329 0 -512 192q-185 194 -185 496z" />
<glyph unicode="&#x405;" horiz-adv-x="1019" d="M70 88v162q189 -133 395 -133q146 0 232.5 58.5t86.5 170.5q0 95 -66.5 167t-176.5 118q-17 8 -53 23q-53 22 -81 34.5t-77 37t-76 43.5t-62 49t-53 59.5t-31 68.5t-12 82q0 167 121 256q124 92 289 92q199 0 358 -84v-157q-152 104 -334 104q-118 0 -192 -52.5 t-74 -152.5q0 -125 242 -225q73 -29 122 -51.5t115.5 -63.5t107 -84.5t69.5 -108t28 -139.5q0 -183 -124 -282.5t-337 -99.5q-247 0 -417 108z" />
<glyph unicode="&#x406;" horiz-adv-x="532" d="M182 0v1354h164v-1354h-164z" />
<glyph unicode="&#x407;" horiz-adv-x="546" d="M18 1627q0 34 25.5 61.5t62.5 27.5q38 0 63.5 -25.5t25.5 -62.5q0 -60 -55 -83t-99 18q-23 30 -23 64zM188 0v1354h164v-1354h-164zM360 1627q0 34 24.5 61.5t61.5 27.5q38 0 63.5 -25.5t25.5 -62.5q0 -38 -27 -64t-61 -26t-64 25q-23 30 -23 64z" />
<glyph unicode="&#x408;" horiz-adv-x="937" d="M23 41v158q54 -34 132.5 -56t141.5 -22q184 0 246 96q63 92 63 279v858h166v-824q0 -93 -8 -157.5t-33 -139.5q-37 -119 -138.5 -183t-285.5 -70q-171 0 -284 61z" />
<glyph unicode="&#x409;" horiz-adv-x="2103" d="M8 84q150 35 201 109q56 77 74 253l86 908h768v-527h385q237 0 360 -120q125 -119 125 -301q0 -191 -127 -300q-124 -106 -317 -106h-594v1225h-453l-72 -719q-27 -266 -100 -391q-71 -124 -268 -154zM1137 137h411q132 0 212.5 71t80.5 202q0 132 -88.5 207t-228.5 75 h-387v-555z" />
<glyph unicode="&#x40a;" horiz-adv-x="2146" d="M166 0v1356h164v-547h680v547h168v-547h387q232 0 358.5 -113.5t126.5 -298.5q0 -187 -127 -293q-125 -104 -317 -104h-596v676h-680v-676h-164zM1178 137h413q134 0 212.5 66.5t78.5 197.5t-88 203t-229 72h-387v-539z" />
<glyph unicode="&#x40b;" horiz-adv-x="1607" d="M29 1217v139h1071v-139h-471v-453q195 70 395 70q212 0 320 -102t108 -286v-446h-166v403q0 148 -73 221.5t-244 73.5q-183 0 -340 -65v-633h-166v1217h-434z" />
<glyph unicode="&#x40c;" horiz-adv-x="1220" d="M164 0v1354h166v-637l622 637h191l-631 -652l688 -702h-209l-661 688v-688h-166zM475 1497l254 299l156 -51l-287 -248h-123z" />
<glyph unicode="&#x40e;" horiz-adv-x="1189" d="M18 1354h175l413 -865h8l392 865h168l-525 -1151q-59 -126 -129.5 -177t-177.5 -51q-123 0 -227 52v141q109 -59 211 -59q136 0 194 159l17 43zM340 1763h109q0 -83 45 -136.5t118 -53.5q155 0 170 190h107q-6 -125 -79 -206.5t-198 -81.5q-124 0 -196 84q-73 85 -76 204 z" />
<glyph unicode="&#x40f;" horiz-adv-x="1398" d="M164 0v1354h166v-1217h739v1217h164v-1354h-449v-328h-161v328h-459z" />
<glyph unicode="&#x410;" horiz-adv-x="1277" d="M29 0l598 1366h30l594 -1366h-168l-129 305h-637l-127 -305h-161zM369 426h536l-264 618h-8z" />
<glyph unicode="&#x411;" horiz-adv-x="1300" d="M164 0v1354h878v-133h-708v-396h385q237 0 360 -120q125 -119 125 -299q0 -197 -135 -302q-131 -104 -332 -104h-573zM334 137h418q128 0 207 71.5t79 201.5q0 132 -89.5 207t-229.5 75h-385v-555z" />
<glyph unicode="&#x412;" horiz-adv-x="1255" d="M166 0v1356h508q180 0 287.5 -86.5t107.5 -243.5q0 -89 -47 -167t-131 -120v-8q125 -35 190.5 -128t65.5 -212q0 -170 -121 -282q-121 -109 -303 -109h-557zM328 139h362q164 0 230 78q67 79 67 184q0 117 -85.5 187.5t-231.5 70.5h-342v-520zM328 786h325q32 0 64 5.5 t67.5 21.5t62.5 40t44.5 64t17.5 91q0 97 -63.5 154t-175.5 57h-342v-433z" />
<glyph unicode="&#x413;" horiz-adv-x="1067" d="M164 0v1354h870v-137h-704v-1217h-166z" />
<glyph unicode="&#x414;" horiz-adv-x="1634" d="M18 137h170q101 101 153 241t79 367l76 607h876v-1215h187v-461h-158v324h-1227v-324h-156v461zM371 137h833v1084h-573l-43 -383q-30 -264 -79 -426t-138 -275z" />
<glyph unicode="&#x415;" horiz-adv-x="1144" d="M164 0v1354h864v-137h-698v-437h645v-135h-645v-506h749v-139h-915z" />
<glyph unicode="&#x416;" horiz-adv-x="1898" d="M14 0l666 702l-608 652h192l602 -637v637h164v-637l602 637h195l-610 -652l665 -702h-211l-641 688v-688h-164v688l-641 -688h-211z" />
<glyph unicode="&#x417;" horiz-adv-x="1175" d="M53 74v151q184 -106 398 -106q218 0 334 79t116 216q0 116 -103.5 184t-267.5 68h-163v127h157q154 0 242 64.5t88 160.5q0 99 -94.5 159t-245.5 60q-80 0 -205 -25q-118 -21 -205 -65v149q86 41 207 62q129 22 217 22q226 0 361 -91t135 -253q0 -95 -61.5 -178.5 t-167.5 -114.5v-8q130 -26 201 -114.5t71 -210.5q0 -189 -154 -310q-150 -120 -432 -120q-101 0 -227 24q-126 25 -201 70z" />
<glyph unicode="&#x418;" horiz-adv-x="1480" d="M164 -14v1368h162v-1030h8l946 1046h33v-1370h-160v1036h-6l-946 -1050h-37z" />
<glyph unicode="&#x419;" horiz-adv-x="1480" d="M164 -14v1368h162v-1030h8l946 1046h33v-1370h-160v1036h-6l-946 -1050h-37zM479 1769h107q2 -85 46.5 -137.5t117.5 -52.5q81 0 122.5 51.5t47.5 138.5h106q-6 -125 -78.5 -206.5t-197.5 -81.5q-120 0 -193 81.5t-78 206.5z" />
<glyph unicode="&#x41a;" horiz-adv-x="1220" d="M164 0v1354h166v-637l622 637h191l-631 -652l688 -702h-209l-661 688v-688h-166z" />
<glyph unicode="&#x41b;" horiz-adv-x="1320" d="M8 82q149 35 201 111q54 79 72 253l88 906h786v-1352h-168v1225h-473l-74 -740q-24 -255 -98 -376t-266 -148z" />
<glyph unicode="&#x41c;" horiz-adv-x="1669" d="M164 0v1364h35l637 -860l632 860h35v-1364h-157v479q2 211 2 482l-7 4l-491 -672h-33l-491 655l-4 -4v-944h-158z" />
<glyph unicode="&#x41d;" horiz-adv-x="1380" d="M164 0v1354h166v-572h723v572h161v-1354h-161v643h-723v-643h-166z" />
<glyph unicode="&#x41e;" horiz-adv-x="1617" d="M106 676q0 293 205 495q205 205 500 205q301 0 500 -202q198 -198 198 -498t-198 -498q-195 -198 -500 -198q-326 0 -516 196q-189 198 -189 500zM276 676q0 -242 146 -400q143 -155 389 -155q237 0 385 160q150 163 150 395q0 234 -152 395q-149 162 -383 162t-385 -160 q-150 -159 -150 -397z" />
<glyph unicode="&#x41f;" horiz-adv-x="1392" d="M164 0v1354h1061v-1354h-164v1217h-731v-1217h-166z" />
<glyph unicode="&#x420;" horiz-adv-x="1167" d="M162 0v1352h463q227 0 354 -133q129 -132 129 -314q0 -205 -139 -332q-136 -124 -344 -124h-295v-449h-168zM328 588h278q163 0 246 92q84 96 84 221q0 130 -90 223q-89 95 -266 95h-252v-631z" />
<glyph unicode="&#x421;" horiz-adv-x="1257" d="M109 670q0 303 200 506q199 202 504 202q219 0 338 -61v-152q-147 72 -320 72q-235 0 -395 -154q-157 -154 -157 -413q0 -251 143 -400t399 -149q195 0 381 104v-151q-155 -94 -397 -94q-329 0 -512 192q-184 193 -184 498z" />
<glyph unicode="&#x422;" horiz-adv-x="1089" d="M29 1217v139h1030v-139h-430v-1217h-166v1217h-434z" />
<glyph unicode="&#x423;" horiz-adv-x="1189" d="M18 1354h175l413 -865h8l392 865h168l-525 -1151q-59 -126 -129.5 -177t-177.5 -51q-123 0 -227 52v141q109 -59 211 -59q136 0 194 159l17 43z" />
<glyph unicode="&#x424;" horiz-adv-x="1708" d="M104 700q0 240 193 396q196 158 475 170v88h164v-88q282 -9 475 -170q191 -156 191 -396q0 -237 -183 -391q-186 -153 -483 -174v-135h-164v135q-294 12 -481 168t-187 397zM270 700q0 -183 134 -297t368 -133v863q-224 -15 -364 -134q-138 -117 -138 -299zM934 270 q237 9 373 127q137 119 137 305q0 182 -144 302q-141 120 -366 129v-863z" />
<glyph unicode="&#x425;" horiz-adv-x="1273" d="M18 0l469 698l-434 654h176l410 -625l401 625h181l-441 -654l473 -698h-184l-430 670l-442 -670h-179z" />
<glyph unicode="&#x426;" horiz-adv-x="1447" d="M164 0v1354h166v-1217h739v1217h164v-1217h192v-461h-157v324h-1104z" />
<glyph unicode="&#x427;" horiz-adv-x="1312" d="M137 952v402h166v-367q0 -293 336 -293q178 0 338 66v594h168v-1354h-168v631q-195 -68 -387 -68q-217 0 -335 103.5t-118 285.5z" />
<glyph unicode="&#x428;" horiz-adv-x="1949" d="M166 0v1356h164v-1219h559v1219h168v-1219h563v1219h164v-1356h-1618z" />
<glyph unicode="&#x429;" horiz-adv-x="1996" d="M164 0v1354h166v-1217h557v1217h168v-1217h563v1217h166v-1217h192v-461h-157v324h-1655z" />
<glyph unicode="&#x42a;" horiz-adv-x="1718" d="M18 1219v135h732v-529h387q237 0 360 -120q125 -119 125 -299q0 -191 -127 -300q-124 -106 -317 -106h-596v1219h-564zM750 135h280q140 0 238 21q91 21 135.5 80t50.5 174q0 132 -88.5 207t-228.5 75h-387v-557z" />
<glyph unicode="&#x42b;" horiz-adv-x="1720" d="M164 0v1354h168v-529h387q237 0 360 -120q125 -119 125 -299q0 -191 -127 -300q-124 -106 -317 -106h-596zM332 135h280q78 0 105 2q125 5 186 37q65 32 100 86.5t35 149.5q0 132 -89.5 207t-229.5 75h-387v-557zM1389 0v1354h163v-1354h-163z" />
<glyph unicode="&#x42c;" horiz-adv-x="1300" d="M166 0v1356h168v-529h385q237 0 360 -120q125 -119 125 -301q0 -188 -127 -297t-315 -109h-596zM334 137h414q131 0 210.5 71t79.5 202q0 132 -88.5 207t-228.5 75h-387v-555z" />
<glyph unicode="&#x42d;" horiz-adv-x="1257" d="M53 74v151q186 -104 381 -104q260 0 397 149q141 153 144 377h-696v131h688q-23 220 -158.5 339.5t-362.5 119.5q-189 0 -342 -72v150q123 63 365 63q328 0 504 -194t176 -506q0 -277 -172 -479q-87 -101 -223.5 -159t-300.5 -58q-246 0 -400 92z" />
<glyph unicode="&#x42e;" horiz-adv-x="2123" d="M164 0v1352h168v-588h334q27 266 211 438q187 172 460 172q304 0 492 -200q186 -198 186 -498q0 -298 -188 -498q-187 -196 -492 -196q-290 0 -479 186q-191 188 -194 467h-330v-635h-168zM827 674q0 -233 142 -398q141 -159 368 -159q234 0 369 159q137 158 137 398 q0 239 -137 397q-136 160 -369 160q-230 0 -370 -162q-140 -161 -140 -395z" />
<glyph unicode="&#x42f;" horiz-adv-x="1234" d="M45 0l459 520q-178 34 -283 148q-102 117 -102 262q0 197 139 309q137 113 328 113h483v-1352h-166v1219h-293q-148 0 -236.5 -81t-88.5 -220q0 -129 112 -222t332 -102v-27l-481 -567h-203z" />
<glyph unicode="&#x430;" horiz-adv-x="1026" d="M88 242q0 150 107 232.5t315 82.5h217v31q0 223 -250 223q-139 0 -293 -86v131q141 78 314 78q198 0 290.5 -91.5t92.5 -273.5v-569h-111l-20 121h-5q-111 -141 -335 -141q-170 0 -246 79q-76 82 -76 183zM242 258q0 -76 60 -119t155 -43q125 0 197.5 81.5t72.5 203.5v63 h-217q-268 0 -268 -186z" />
<glyph unicode="&#x431;" horiz-adv-x="1134" d="M92 522q0 560 342 766q104 64 479 199l74 -107q-24 -10 -96 -36.5t-109 -40.5q-153 -55 -219 -86q-137 -65 -219.5 -190.5t-101.5 -278.5h14q48 84 143.5 132t202.5 48q213 0 332 -137q123 -135 123 -342q0 -195 -131 -332t-353 -137q-243 0 -364 151q-117 153 -117 391z M252 451q0 -141 86 -244q85 -101 240 -101q146 0 235 99q88 101 88 246q0 146 -86 249q-83 103 -233 103q-146 0 -238 -103t-92 -249z" />
<glyph unicode="&#x432;" horiz-adv-x="1036" d="M143 0v909h437q309 0 309 -229q0 -117 -115 -182v-9q87 -22 130.5 -86t43.5 -141q0 -115 -88 -188q-89 -74 -217 -74h-500zM301 115h291q95 0 147 45t52 119q0 64 -50 104.5t-141 40.5h-299v-309zM301 541h285q68 0 108.5 33.5t40.5 87.5q0 137 -182 137h-252v-258z" />
<glyph unicode="&#x433;" horiz-adv-x="872" d="M143 0v909h707v-118h-549v-791h-158z" />
<glyph unicode="&#x434;" horiz-adv-x="1220" d="M12 121h138q76 63 115 177t65 323l35 288h673q0 -219 -2 -393v-395h162v-375h-141v254h-905v-254h-140v375zM317 121h564v670h-394l-12 -111q-21 -167 -22 -174q-5 -46 -25 -141q-29 -143 -111 -244z" />
<glyph unicode="&#x435;" horiz-adv-x="1064" d="M94 459q0 199 127 338q128 137 324 137q194 0 309 -133t115 -334q0 -33 -2 -41h-713q3 -152 98 -238t232 -86q193 0 344 115v-137q-135 -100 -346 -100q-228 0 -359 131q-129 132 -129 348zM256 537h567q-18 127 -89 199.5t-185 72.5q-118 0 -197 -74t-96 -198z" />
<glyph unicode="&#x436;" horiz-adv-x="1542" d="M10 0l508 477l-465 434h189l450 -415v415h156v-415l450 415h189l-465 -434l510 -477h-205l-479 457v-457h-156v457l-479 -457h-203z" />
<glyph unicode="&#x437;" horiz-adv-x="847" d="M53 39v133q48 -32 129 -52t152 -20q139 0 207.5 51t68.5 132q0 145 -229 145h-131v117h119q107 0 163 36t56 95q0 58 -58 94.5t-165 36.5q-163 0 -275 -59v131q121 53 295 53q175 -1 265.5 -62.5t90.5 -175.5q0 -60 -43.5 -115t-122.5 -83q93 -22 141 -79t48 -134 q0 -137 -111.5 -220t-306.5 -83q-178 0 -293 59z" />
<glyph unicode="&#x438;" horiz-adv-x="1116" d="M143 -10v921h156v-632h6l633 643h31v-922h-154v618h-6l-627 -628h-39z" />
<glyph unicode="&#x439;" horiz-adv-x="1116" d="M143 -10v921h156v-632h6l633 643h31v-922h-154v618h-6l-627 -628h-39zM307 1360h107q2 -85 46.5 -138t117.5 -53q81 0 122.5 51.5t47.5 139.5h106q-6 -125 -78.5 -207t-197.5 -82q-120 0 -193 82t-78 207z" />
<glyph unicode="&#x43a;" horiz-adv-x="1005" d="M143 0v909h156v-415l461 415h190l-477 -428l520 -481h-207l-487 459v-459h-156z" />
<glyph unicode="&#x43b;" horiz-adv-x="1021" d="M10 86q117 21 154 88q38 72 53 238l49 497h611v-909h-156v791h-322l-37 -365q-11 -105 -20.5 -158.5t-28.5 -111.5q-27 -86 -81.5 -126.5t-165.5 -62.5z" />
<glyph unicode="&#x43c;" horiz-adv-x="1398" d="M143 0v918h41l527 -566l497 566h45v-918h-155v610l-371 -426h-33l-397 430v-614h-154z" />
<glyph unicode="&#x43d;" horiz-adv-x="1107" d="M143 0v911h156v-372h508v372h156v-911h-156v418h-508v-418h-156z" />
<glyph unicode="&#x43e;" horiz-adv-x="1150" d="M94 457q0 199 139 338t345 139q210 0 344 -137q135 -138 135 -340q0 -203 -137 -340q-134 -137 -342 -137q-221 0 -353 135q-131 134 -131 342zM252 459q0 -156 88 -253t238 -97t237 100q88 101 88 250q0 142 -90 246q-87 100 -235 100q-149 0 -236 -100 q-90 -104 -90 -246z" />
<glyph unicode="&#x43f;" horiz-adv-x="1110" d="M143 0v911h822v-911h-158v778h-508v-778h-156z" />
<glyph unicode="&#x440;" horiz-adv-x="1185" d="M127 -440v1353h109l26 -133h8q54 76 147 117t199 41q206 0 332 -129q127 -127 127 -340q0 -210 -129 -348q-130 -139 -332 -139q-213 0 -331 124l-9 -2v-544h-147zM276 459q0 -145 89 -248q88 -98 239 -98q155 0 236 100q84 104 84 250q0 154 -88 249t-236 95 q-139 0 -231 -102q-93 -104 -93 -246z" />
<glyph unicode="&#x441;" horiz-adv-x="888" d="M94 446q0 211 135 349q136 139 340 139q136 0 232 -41v-139q-86 53 -209 53q-146 0 -244 -98q-96 -96 -96 -260q0 -154 91.5 -247t246.5 -93q148 0 246 67v-137q-103 -59 -279 -59q-223 0 -342 131q-121 133 -121 335z" />
<glyph unicode="&#x442;" horiz-adv-x="907" d="M18 788v121h869v-121h-357v-788h-153v788h-359z" />
<glyph unicode="&#x443;" horiz-adv-x="925" d="M20 911h158l279 -704h10l287 704h151l-565 -1351h-152l201 477z" />
<glyph unicode="&#x444;" horiz-adv-x="1404" d="M80 455q0 203 147 329q151 129 396 144v528h151v-526q254 -12 402 -142q147 -126 147 -333q0 -204 -154 -340q-152 -134 -395 -140v-208q2 -92 2 -207h-153v415q-245 9 -396 142q-147 132 -147 338zM236 455q0 -154 106 -254q107 -101 283 -107v713q-165 -3 -279 -102 q-110 -98 -110 -250zM776 94q174 6 283 109q108 102 108 252q0 154 -106.5 251t-284.5 103v-715z" />
<glyph unicode="&#x445;" horiz-adv-x="956" d="M18 0l316 467l-297 444h166l276 -417l275 417h166l-299 -442l315 -469h-170l-287 440l-295 -440h-166z" />
<glyph unicode="&#x446;" horiz-adv-x="1157" d="M143 0v911h156v-780h508v780h158v-780h157v-385h-145v254h-834z" />
<glyph unicode="&#x447;" horiz-adv-x="1062" d="M115 641v270h155v-237q0 -125 58.5 -180.5t173.5 -55.5q67 0 139 30t119 79v364h158v-911h-158v420q0 2 -2 2q-127 -115 -326 -115q-317 0 -317 334z" />
<glyph unicode="&#x448;" horiz-adv-x="1648" d="M143 0v911h158v-780h438v778h154v-778h453v780h157v-911h-1360z" />
<glyph unicode="&#x449;" horiz-adv-x="1689" d="M143 0v911h158v-780h438v778h154v-778h453v780h157v-780h158v-385h-145v254h-1373z" />
<glyph unicode="&#x44a;" horiz-adv-x="1329" d="M0 791v120h571v-299h320q164 0 258 -84.5t94 -220.5q0 -141 -92 -224t-242 -83h-493v791h-416zM571 115h308q94 0 152.5 51.5t58.5 140.5t-64 141t-164 52h-291v-385z" />
<glyph unicode="&#x44b;" horiz-adv-x="1419" d="M143 0v911h158v-299h320q164 0 258 -84.5t94 -220.5q0 -141 -92 -224t-242 -83h-496zM301 115h307q94 0 152.5 51.5t58.5 140.5t-63.5 141t-163.5 52h-291v-385zM1118 0v911h156v-911h-156z" />
<glyph unicode="&#x44c;" horiz-adv-x="1058" d="M143 0v911h158v-299h320q164 0 258 -84.5t94 -220.5q0 -141 -92 -224t-242 -83h-496zM301 115h307q94 0 152.5 51.5t58.5 140.5t-63.5 141t-163.5 52h-291v-385z" />
<glyph unicode="&#x44d;" horiz-adv-x="888" d="M53 39v137q98 -67 258 -67q145 0 232 82t92 215h-412v118h408q-7 131 -91 205t-212 74q-133 0 -240 -58v134q123 57 260 57q193 0 320 -127t127 -350q0 -210 -121 -346q-121 -133 -342 -133q-176 0 -279 59z" />
<glyph unicode="&#x44e;" horiz-adv-x="1583" d="M145 0v909h154v-372h260q27 168 156 282q128 113 311 113q215 0 340 -137q129 -135 129 -340q0 -203 -131 -340q-132 -135 -338 -135q-211 0 -340 126q-130 130 -133 326h-254v-432h-154zM709 455q0 -148 84 -252q86 -99 235 -99q144 0 229 101q86 103 86 250 q0 144 -86 247t-229 103q-142 0 -231 -103q-88 -101 -88 -247z" />
<glyph unicode="&#x44f;" horiz-adv-x="980" d="M35 0l321 346q-116 24 -184 100t-68 175q0 134 97 213q100 77 243 77h392v-911h-154v793h-209q-213 0 -213 -185q0 -79 81.5 -134t223.5 -56v-29l-348 -389h-182z" />
<glyph unicode="&#x451;" horiz-adv-x="1064" d="M94 459q0 199 127 338q128 137 324 137q194 0 309 -133t115 -334q0 -33 -2 -41h-713q3 -152 98 -238t232 -86q193 0 344 115v-137q-135 -100 -346 -100q-228 0 -359 131q-129 132 -129 348zM256 537h567q-18 127 -89 199.5t-185 72.5q-118 0 -197 -74t-96 -198zM287 1221 q0 36 27.5 62t64.5 26t61.5 -25.5t24.5 -62.5q0 -38 -24.5 -63t-61.5 -25q-41 0 -66.5 24.5t-25.5 63.5zM629 1221q0 36 26 62t62 26q38 0 63 -25.5t25 -62.5q5 -54 -41.5 -76.5t-93 0t-41.5 76.5z" />
<glyph unicode="&#x452;" horiz-adv-x="1134" d="M18 1147v96h109v213h152v-213h399v-96h-399v-393h2q2 -2 4 -2q117 178 348 178q187 0 297 -127t110 -371q0 -192 -104 -360q-107 -172 -279 -265l-106 74q97 49 167 118.5t103 145.5q64 136 64 275q0 194 -78.5 286.5t-218.5 92.5q-120 0 -217 -97q-92 -95 -92 -237v-465 h-152v1147h-109z" />
<glyph unicode="&#x453;" horiz-adv-x="872" d="M143 0v909h707v-118h-549v-791h-158zM367 1079l221 324l145 -49l-254 -275h-112z" />
<glyph unicode="&#x454;" horiz-adv-x="888" d="M94 446q0 211 135 349q136 139 340 139q136 0 232 -41v-139q-86 53 -209 53q-128 0 -223 -80q-96 -81 -111 -209h408v-119h-412q3 -125 96 -209q93 -81 240 -81q148 0 246 67v-137q-103 -59 -279 -59q-223 0 -342 131q-121 133 -121 335z" />
<glyph unicode="&#x455;" horiz-adv-x="770" d="M49 57v140q142 -103 295 -103q209 0 209 144q0 43 -26 76.5t-67.5 56.5t-92 44t-100.5 44.5t-91.5 52t-67.5 72t-26 98.5q0 118 86.5 184t220.5 66q137 0 270 -62v-133q-138 78 -249 78q-174 0 -174 -129q0 -78 163 -141q44 -17 70.5 -28t67 -31t65.5 -41t50.5 -49.5 t37.5 -65t12 -78.5q0 -124 -93.5 -197t-248.5 -73q-185 0 -311 75z" />
<glyph unicode="&#x456;" horiz-adv-x="483" d="M145 1190q0 38 30.5 68t68.5 30q41 0 68.5 -28.5t27.5 -69.5t-27.5 -68.5t-68.5 -27.5q-43 0 -71 27.5t-28 68.5zM162 0v911h155v-911h-155z" />
<glyph unicode="&#x457;" horiz-adv-x="483" d="M-16 1206q0 36 27.5 62t64.5 26t61.5 -25.5t24.5 -62.5q0 -38 -24.5 -63t-61.5 -25q-41 0 -66.5 24.5t-25.5 63.5zM162 0v911h155v-911h-155zM326 1206q0 36 26 62t62 26q38 0 63 -25.5t25 -62.5q5 -54 -41.5 -76.5t-93 0t-41.5 76.5z" />
<glyph unicode="&#x458;" horiz-adv-x="452" d="M-104 -334q139 6 196.5 76.5t57.5 222.5v946h153v-952q0 -403 -344 -426zM131 1190q0 38 30 67t68 29q41 0 69 -27.5t28 -68.5t-28 -68.5t-69 -27.5q-43 0 -70.5 27.5t-27.5 68.5z" />
<glyph unicode="&#x459;" horiz-adv-x="1619" d="M10 86q117 21 154 88q38 72 53 238l49 497h600v-305h318q164 0 257 -83.5t93 -219.5q0 -139 -92 -220t-240 -81h-491v791h-312l-37 -365q-11 -105 -20.5 -158.5t-28.5 -111.5q-27 -86 -81.5 -126.5t-165.5 -62.5zM866 113h308q92 0 149 50.5t57 137.5q0 89 -62 140 t-161 51h-291v-379z" />
<glyph unicode="&#x45a;" horiz-adv-x="1642" d="M143 0v909h156v-346h455v346h153v-344h299q168 0 259 -75.5t91 -206.5q0 -137 -89 -210t-240 -73h-473v451h-455v-451h-156zM907 113h289q211 0 211 170q0 83 -61.5 125.5t-165.5 42.5h-273v-338z" />
<glyph unicode="&#x45b;" horiz-adv-x="1083" d="M23 1145v96h100v215h151v-215h379v-96h-379v-365h7q123 150 313 150q164 0 255 -100t91 -277v-553h-156v541q0 125 -56.5 192.5t-160.5 67.5q-129 0 -207.5 -86t-78.5 -246v-469h-158v1145h-100z" />
<glyph unicode="&#x45c;" horiz-adv-x="1005" d="M143 0v909h156v-415l461 415h190l-477 -428l520 -481h-207l-487 459v-459h-156zM383 1079l221 324l146 -49l-254 -275h-113z" />
<glyph unicode="&#x45e;" horiz-adv-x="925" d="M20 911h158l279 -704h10l287 704h151l-565 -1351h-152l201 477zM211 1378h106q2 -85 46.5 -137.5t117.5 -52.5q81 0 122.5 51.5t47.5 138.5h107q-6 -125 -79 -206.5t-198 -81.5q-120 0 -192.5 81.5t-77.5 206.5z" />
<glyph unicode="&#x45f;" horiz-adv-x="1116" d="M147 0v911h156v-780h506v780h158v-911h-334v-272h-148v272h-338z" />
<glyph unicode="&#x490;" horiz-adv-x="1073" d="M164 0v1354h741v231h139v-366h-714v-1219h-166z" />
<glyph unicode="&#x491;" horiz-adv-x="880" d="M143 0v909h582v226h127v-347h-551v-788h-158z" />
<glyph unicode="&#x4d9;" horiz-adv-x="1079" d="M106 446q0 28 3 43h714q-4 153 -89 237.5t-232 84.5q-183 0 -342 -111v131q142 103 358 103q220 0 341.5 -128.5t121.5 -350.5q0 -199 -127 -338q-125 -137 -322 -137q-200 0 -313 131t-113 335zM252 391q12 -132 85 -208.5t191 -76.5q122 0 201.5 77.5t91.5 207.5h-569z " />
<glyph unicode="&#x2000;" horiz-adv-x="898" />
<glyph unicode="&#x2001;" horiz-adv-x="1796" />
<glyph unicode="&#x2002;" horiz-adv-x="898" />
<glyph unicode="&#x2003;" horiz-adv-x="1796" />
<glyph unicode="&#x2004;" horiz-adv-x="598" />
<glyph unicode="&#x2005;" horiz-adv-x="449" />
<glyph unicode="&#x2006;" horiz-adv-x="299" />
<glyph unicode="&#x2007;" horiz-adv-x="299" />
<glyph unicode="&#x2008;" horiz-adv-x="224" />
<glyph unicode="&#x2009;" horiz-adv-x="359" />
<glyph unicode="&#x200a;" horiz-adv-x="99" />
<glyph unicode="&#x2010;" horiz-adv-x="770" d="M121 436v127h526v-127h-526z" />
<glyph unicode="&#x2011;" horiz-adv-x="770" d="M121 436v127h526v-127h-526z" />
<glyph unicode="&#x2012;" horiz-adv-x="770" d="M121 436v127h526v-127h-526z" />
<glyph unicode="&#x2013;" horiz-adv-x="1146" d="M63 432v123h1018v-123h-1018z" />
<glyph unicode="&#x2014;" horiz-adv-x="1689" d="M70 432v123h1552v-123h-1552z" />
<glyph unicode="&#x2018;" horiz-adv-x="411" d="M104 1042q0 112 148 357l78 -13l-84 -247q65 -21 65 -95q0 -42 -31 -73t-73 -31q-43 0 -73 29t-30 73z" />
<glyph unicode="&#x2019;" horiz-adv-x="411" d="M96 950l82 250q-63 21 -63 92q0 43 30.5 74t73.5 31t73 -29.5t30 -73.5q0 -111 -148 -356z" />
<glyph unicode="&#x201a;" horiz-adv-x="446" d="M106 -266l82 264q-59 21 -59 90q0 43 30 74t72 31q43 0 72 -29.5t29 -73.5q0 -57 -49 -170q-49 -121 -99 -199z" />
<glyph unicode="&#x201c;" horiz-adv-x="671" d="M106 1042q0 111 150 357l78 -13l-84 -247q63 -21 63 -95q0 -43 -30.5 -73.5t-71.5 -30.5q-45 0 -75 29t-30 73zM354 1042q0 112 148 357l78 -13l-82 -247q63 -21 63 -95q0 -43 -30.5 -73.5t-73.5 -30.5t-73 29t-30 73z" />
<glyph unicode="&#x201d;" horiz-adv-x="671" d="M96 950l82 250q-63 21 -63 92q0 43 30.5 74t73.5 31t73 -29.5t30 -73.5q0 -102 -148 -356zM342 950l84 250q-66 21 -66 92q0 42 31.5 73.5t73.5 31.5q43 0 73.5 -29.5t30.5 -73.5q0 -112 -149 -356z" />
<glyph unicode="&#x201e;" horiz-adv-x="688" d="M98 -266l82 264q-59 21 -59 90q0 43 30 74t72 31q43 0 72 -29.5t29 -73.5q0 -55 -50 -170q-51 -125 -98 -199zM352 -266l82 264q-59 21 -59 90q0 43 30 74t72 31q43 0 72 -29.5t29 -73.5q0 -55 -50 -170q-51 -125 -98 -199z" />
<glyph unicode="&#x2026;" horiz-adv-x="1284" d="M117 88q0 44 32 75.5t76 31.5t75.5 -31.5t31.5 -75.5t-32 -75t-75 -31q-44 0 -76 31t-32 75zM539 88q0 44 31.5 75.5t74.5 31.5q44 0 76.5 -31.5t32.5 -75.5t-32 -75t-75 -31q-44 0 -76 31t-32 75zM960 88q0 45 31 76t76 31t76 -31q32 -31 32 -76t-32 -76 q-31 -31 -76 -31t-76 31t-31 76z" />
<glyph unicode="&#x202f;" horiz-adv-x="359" />
<glyph unicode="&#x2039;" horiz-adv-x="591" d="M86 401v19l276 368h156l-280 -372l280 -385h-160z" />
<glyph unicode="&#x203a;" horiz-adv-x="591" d="M84 31l278 385l-278 372h154l276 -368v-19l-270 -370h-160z" />
<glyph unicode="&#x205f;" horiz-adv-x="449" />
<glyph unicode="&#x20ac;" d="M74 551v84h835v-84h-581q27 -197 141 -313.5t299 -116.5q152 0 283 55v-135q-130 -53 -283 -53q-246 0 -410 147q-161 144 -188 416h-96zM74 743v84h102q43 239 197 390q157 151 405 151q120 0 238 -37v-137q-118 37 -234 37q-177 0 -294 -106t-154 -298h575v-84h-835z " />
<glyph unicode="&#x2122;" horiz-adv-x="1536" d="M66 1284v92h548v-92h-213v-653h-114v653h-221zM676 631v745h26l320 -387l14 6l310 381h24v-745h-113v477h-6l-215 -268h-22l-215 264h-6v-473h-117z" />
<glyph unicode="&#x25fc;" horiz-adv-x="911" d="M0 0v911h911v-911h-911z" />
</font>
</defs>
</svg>
