<?xml version="1.0" standalone="no"?>
<!DOCTYPE svg PUBLIC "-//W3C//DTD SVG 1.1//EN" "http://www.w3.org/Graphics/SVG/1.1/DTD/svg11.dtd" >
<svg xmlns="http://www.w3.org/2000/svg" xmlns:xlink="http://www.w3.org/1999/xlink" version="1.1">
<metadata></metadata>
<defs>
<font id="pf_bague_sans_probold" horiz-adv-x="1171" >
<font-face units-per-em="2048" ascent="1638" descent="-410" />
<missing-glyph horiz-adv-x="491" />
<glyph horiz-adv-x="0" />
<glyph horiz-adv-x="682" />
<glyph unicode=" "  horiz-adv-x="491" />
<glyph unicode="&#x09;" horiz-adv-x="491" />
<glyph unicode="&#xa0;" horiz-adv-x="491" />
<glyph unicode="!" horiz-adv-x="649" d="M176 121q0 61 44 105t106 44q60 0 102.5 -43.5t42.5 -105.5q0 -57 -42.5 -99t-102.5 -42q-61 0 -105.5 42t-44.5 99zM182 1417h283l-27 -1034h-225z" />
<glyph unicode="&#x22;" horiz-adv-x="724" d="M115 915v484h202v-484h-202zM408 915v484h202v-484h-202z" />
<glyph unicode="#" horiz-adv-x="1138" d="M68 412v137h190q47 215 57 252h-180v135h209l78 348h158l-76 -348h229l76 348h158l-37 -172q-25 -120 -39 -176h176v-135h-205l-57 -252h188v-137h-217l-90 -412h-160q76 336 90 412h-229l-88 -412h-162l92 412h-161zM418 549h231q40 182 53 252h-229z" />
<glyph unicode="$" d="M143 102v246q86 -62 215 -104q131 -41 217 -41q104 0 161 44.5t57 119.5q0 25 -7.5 47.5t-19 40t-32.5 35.5t-40 31t-49 29.5t-52 27t-58 27.5t-58 28q-55 26 -94 47.5t-84 55t-72.5 69t-46 86t-18.5 108.5q0 141 94 237t258 116v225h162v-223q170 -15 301 -78v-229 q-168 110 -361 110q-194 0 -194 -156q0 -51 59.5 -97t165.5 -93q64 -26 114 -50.5t110 -64.5t99 -82.5t65.5 -102.5t25.5 -126q0 -152 -101.5 -258t-283.5 -129v-215h-162v213q-222 15 -371 106z" />
<glyph unicode="%" horiz-adv-x="1632" d="M72 1063q0 141 96 237q102 97 252 97q153 0 250 -97q96 -96 96 -237q0 -142 -98 -240q-96 -96 -248 -96q-158 0 -253 93.5t-95 242.5zM231 -55l979 1456h172l-979 -1456h-172zM272 1063q0 -74 41 -120t109 -46q65 0 106 48t41 118q0 68 -42 114t-105 46 q-65 0 -107.5 -46.5t-42.5 -113.5zM862 311q0 142 96 238q98 98 252 98t250 -96t96 -238q0 -143 -98 -237q-96 -96 -248 -96q-158 0 -253 91.5t-95 239.5zM1065 313q0 -75 39.5 -120.5t107.5 -45.5q67 0 108.5 46.5t41.5 119.5q0 68 -42.5 115t-107.5 47q-62 0 -104.5 -47.5 t-42.5 -114.5z" />
<glyph unicode="&#x26;" horiz-adv-x="1460" d="M106 324q0 108 70 221t203 178q-60 142 -60 246q0 183 116.5 290t318.5 107q180 0 323 -76q-2 -47 -16 -207q-159 72 -277 72q-97 0 -148.5 -50t-51.5 -142q0 -127 97 -282t275 -314q116 149 187 415l186 -118q-77 -265 -209 -435q149 -119 336 -215l-188 -143 q-170 93 -318 203q-176 -123 -393 -123q-214 0 -332.5 98t-118.5 275zM362 350q0 -92 63.5 -146t164.5 -54q103 0 188 61q-185 164 -289 326q-57 -29 -92 -81t-35 -106z" />
<glyph unicode="'" horiz-adv-x="448" d="M123 915v484h203v-484h-203z" />
<glyph unicode="(" horiz-adv-x="643" d="M125 614q0 233 89.5 467.5t250.5 423.5l153 -61q-258 -396 -258 -830q0 -431 258 -821l-155 -74q-159 182 -250 426q-88 239 -88 469z" />
<glyph unicode=")" horiz-adv-x="643" d="M41 1444l154 61q162 -189 252 -423.5t90 -467.5q0 -222 -91 -469q-92 -246 -249 -426l-154 74q258 393 258 821q0 430 -260 830z" />
<glyph unicode="*" horiz-adv-x="925" d="M131 977q171 65 209 78l-209 84l90 159l172 -139l-14 111l-12 110h182l-31 -219l174 135l90 -157l-202 -80l202 -80l-90 -160l-172 137l29 -223h-178l26 221l-174 -137z" />
<glyph unicode="+" d="M164 516v166h334v336h172v-336h331v-166h-331v-342h-172v342h-334z" />
<glyph unicode="," horiz-adv-x="489" d="M72 -315l100 311q-80 35 -80 129q0 63 43 106t105 43q66 0 106.5 -42.5t40.5 -110.5q0 -86 -65 -219q-64 -131 -142 -232z" />
<glyph unicode="-" horiz-adv-x="765" d="M109 412v182h546v-182h-546z" />
<glyph unicode="." horiz-adv-x="497" d="M98 125q0 63 43 106t105 43q60 0 101.5 -43t41.5 -106q0 -57 -43 -101t-100 -44q-61 0 -104.5 42.5t-43.5 102.5z" />
<glyph unicode="/" horiz-adv-x="702" d="M-33 -184l578 1583h203l-584 -1583h-197z" />
<glyph unicode="0" d="M51 676q0 267 109 469q58 108 168.5 169.5t257.5 61.5q150 0 259 -61t165 -172q106 -197 106 -467q0 -263 -110 -467q-58 -107 -168 -168t-256 -61q-147 0 -255.5 58t-166.5 163q-109 199 -109 475zM332 678q0 -477 254 -477q250 0 250 477q0 475 -250 475 q-254 0 -254 -475z" />
<glyph unicode="1" d="M207 827v256l565 283h39v-1366h-289v967z" />
<glyph unicode="2" d="M86 27q9 246 117 389q55 71 114 121.5t156 113.5l47 31l49 33q61 38 88 65q63 56 74 74q47 73 47 131q0 85 -57 132.5t-148 47.5t-146.5 -58.5t-55.5 -152.5q0 -43 14 -98l-254 45q-10 55 -10 96q0 172 137 279q138 108 328 108q201 0 336 -102t135 -291 q0 -220 -295 -413l-92 -60q-77 -47 -103 -67l-75 -66q-85 -73 -107 -180h680v-205h-942z" />
<glyph unicode="3" d="M72 86v246q158 -137 385 -137q144 0 227.5 70t83.5 184q0 118 -88 179.5t-229 61.5q-62 0 -125 -14l-29 39l332 424l-2 4v4h-516v203h927v-39l-368 -449q181 -41 271.5 -149.5t90.5 -274.5q0 -201 -149 -329q-151 -127 -381 -127q-250 0 -430 104z" />
<glyph unicode="4" d="M10 305v33l615 1014h295l-525 -844h322v184l141 223h131v-407h144v-203h-144v-305h-272v305h-707z" />
<glyph unicode="5" d="M121 86v248q63 -62 169 -100.5t214 -38.5q141 0 226 68t85 181q0 115 -82.5 176.5t-220.5 61.5q-161 0 -305 -72l-37 19l92 723h756v-203h-555q-15 -104 -39 -301q71 26 176 26q202 0 340 -114q139 -115 139 -322q0 -204 -149 -329q-151 -127 -383 -127q-240 0 -426 104z " />
<glyph unicode="6" d="M74 430q0 176 104 344l354 576h299l-331 -523q0 -4 4 -8q70 31 162 31q190 0 311 -121q119 -119 119 -303q0 -197 -142 -324q-140 -122 -366 -122q-234 0 -373 118q-141 120 -141 332zM346 434q0 -104 65.5 -169.5t176.5 -65.5q108 0 173.5 65.5t65.5 169.5 q0 101 -66 167.5t-173 66.5q-105 0 -173.5 -66t-68.5 -168z" />
<glyph unicode="7" d="M125 1145v205h948v-35l-586 -1315h-284l512 1145h-590z" />
<glyph unicode="8" d="M78 383q0 106 56 195t153 131l2 8q-160 86 -160 278q0 171 131 275q130 106 330 106q201 0 325 -106q129 -105 129 -273q0 -83 -43.5 -157.5t-117.5 -112.5v-8q213 -100 213 -330q0 -181 -140 -297q-136 -112 -366 -112q-235 0 -373.5 109t-138.5 294zM352 418 q0 -95 65.5 -158t172.5 -63t172 62.5t65 158.5q0 95 -64.5 156t-172.5 61q-105 0 -171.5 -61.5t-66.5 -155.5zM393 973q0 -79 56.5 -130.5t144.5 -51.5q86 0 142.5 52t56.5 130q0 82 -56.5 134t-144.5 52q-86 0 -142.5 -53t-56.5 -133z" />
<glyph unicode="9" d="M78 926q0 199 139 323q140 125 369 125t368 -121q142 -121 142 -329q0 -160 -105 -342q-115 -203 -354 -582h-299l334 526q-6 6 -6 9q-73 -31 -162 -31q-190 0 -309 119q-117 120 -117 303zM346 918q0 -99 66.5 -164.5t171.5 -65.5t172 64t67 166q0 106 -64 171.5 t-173 65.5q-108 0 -174 -66.5t-66 -170.5z" />
<glyph unicode=":" horiz-adv-x="526" d="M111 125q0 61 43.5 104t103.5 43t102.5 -43t42.5 -104q0 -57 -42.5 -100t-102.5 -43t-103.5 43t-43.5 100zM113 704.5q0 59.5 43 102.5t102 43t102 -43t43 -102.5t-43 -102.5t-102 -43t-102 43t-43 102.5z" />
<glyph unicode=";" horiz-adv-x="538" d="M92 -315l101 311q-80 35 -80 129q0 63 42.5 106t104.5 43q66 0 107 -42.5t41 -110.5q0 -84 -66 -219t-141 -232zM123 704.5q0 59.5 43 102.5t102.5 43t102.5 -43t43 -102.5t-43 -102.5t-102.5 -43t-102.5 43t-43 102.5z" />
<glyph unicode="&#x3c;" d="M164 575v33l844 482v-213l-525 -283l525 -289v-207z" />
<glyph unicode="=" d="M168 348v162h833v-162h-833zM168 700v162h833v-162h-833z" />
<glyph unicode="&#x3e;" d="M164 98v207l522 291l-522 281v213l844 -482v-33z" />
<glyph unicode="?" horiz-adv-x="1069" d="M111 1094v245q188 78 372 78q220 0 344 -106q127 -106 127 -267q0 -78 -40.5 -154.5t-106.5 -137.5q-24 -22 -73 -63.5t-76.5 -66.5t-60 -59t-47.5 -63t-15 -56q0 -32 18 -59l-223 -43q-37 75 -37 131q-1 64 36.5 125t90.5 109.5t106 96t90.5 102.5t36.5 110 q0 75 -57.5 122.5t-155.5 47.5q-156 0 -329 -92zM313 117q0 62 42.5 103.5t105.5 41.5q61 0 102 -41.5t41 -103.5q0 -60 -41.5 -102t-101.5 -42q-67 0 -107.5 40.5t-40.5 103.5z" />
<glyph unicode="@" horiz-adv-x="1886" d="M147 600q0 332 238 561q239 230 592 230q340 0 549 -197q209 -194 209 -496q0 -190 -107 -321q-106 -133 -293 -133q-96 0 -157.5 41.5t-79.5 107.5q-2 2 -8 2q-103 -127 -283 -127q-117 0 -182.5 60.5t-65.5 152.5q0 124 96 187t260 63h132v23q0 127 -164 127 q-117 0 -230 -64v174q119 58 285 58q336 0 336 -320v-188q0 -70 20 -100.5t74 -30.5q81 0 129.5 75.5t48.5 198.5q0 236 -153 383q-153 150 -414 150q-282 0 -463 -175q-180 -174 -180 -438q0 -265 164 -432q163 -166 446 -166q229 0 430 127v-184q-183 -115 -432 -115 q-367 0 -582 215t-215 551zM784 510q0 -41 29 -65.5t78 -24.5q76 0 117 43t41 117v41h-95q-170 0 -170 -111z" />
<glyph unicode="A" horiz-adv-x="1355" d="M20 0l642 1376h45l630 -1376h-309l-92 213h-518l-94 -213h-304zM510 422h336l-162 375h-8z" />
<glyph unicode="B" horiz-adv-x="1308" d="M139 0v1354h602q178 0 285 -94q111 -91 111 -244q0 -81 -41.5 -157t-114.5 -122v-8q114 -41 175 -131.5t61 -200.5q0 -167 -121 -282t-308 -115h-649zM436 236h277q109 0 160 52.5t51 133.5q0 84 -60.5 132t-165.5 48h-262v-366zM436 819h228q81 0 133.5 35.5t52.5 114.5 q0 70 -46.5 112.5t-129.5 42.5h-238v-305z" />
<glyph unicode="C" horiz-adv-x="1273" d="M92 670q0 297 201 504q201 204 530 204q211 0 342 -55v-256q-138 63 -299 63q-197 0 -331 -122t-134 -338q0 -208 120.5 -327.5t328.5 -119.5q178 0 356 90l2 -258q-165 -80 -393 -80q-337 0 -532 195q-191 194 -191 500z" />
<glyph unicode="D" horiz-adv-x="1427" d="M137 0v1352h496q333 0 516 -189q184 -187 184 -483q0 -293 -176 -487q-175 -193 -495 -193h-525zM440 236h213q176 0 278.5 115.5t102.5 328.5q0 205 -100.5 320.5t-292.5 115.5h-201v-880z" />
<glyph unicode="E" horiz-adv-x="1165" d="M137 0v1352h916v-236h-611v-299h547v-227h-547v-354h650v-236h-955z" />
<glyph unicode="F" horiz-adv-x="1095" d="M137 0v1352h926v-236h-621v-346h543v-227h-543v-543h-305z" />
<glyph unicode="G" horiz-adv-x="1392" d="M90 666q0 302 203 508q206 206 538 206q231 0 386 -73v-265q-164 86 -361 86q-198 0 -328 -127q-127 -127 -127 -339q0 -195 107 -320q108 -123 315 -123q98 0 183 31v446h270v-641q-191 -78 -477 -78q-337 0 -525 191q-184 190 -184 498z" />
<glyph unicode="H" horiz-adv-x="1421" d="M137 0v1352h305v-531h535v531h305v-1352h-305v584h-535v-584h-305z" />
<glyph unicode="I" horiz-adv-x="604" d="M147 0v1352h306v-1352h-306z" />
<glyph unicode="J" horiz-adv-x="1017" d="M29 45v256q142 -80 274 -80q143 0 204.5 80t61.5 244v807h310v-781q0 -198 -56 -340q-103 -256 -471 -256q-186 0 -323 70z" />
<glyph unicode="K" horiz-adv-x="1320" d="M137 0v1352h307v-621l492 621h332l-531 -652l568 -700h-353l-508 670v-670h-307z" />
<glyph unicode="L" horiz-adv-x="1089" d="M137 0v1352h305v-1116h625v-236h-930z" />
<glyph unicode="M" horiz-adv-x="1669" d="M137 0v1374h45l654 -756l651 756h43v-1374h-295v659q-3 3 -8 3l-369 -412h-45l-377 412q-3 -3 -6 -3v-659h-293z" />
<glyph unicode="N" horiz-adv-x="1476" d="M137 0v1378h45q115 -112 424 -395q318 -287 420 -387h8v756h303v-1375h-43l-848 803h-6v-780h-303z" />
<glyph unicode="O" horiz-adv-x="1636" d="M90 676q0 294 207 498q208 202 522 202q318 0 520 -202q203 -200 203 -498q0 -301 -205 -500q-202 -199 -520 -199q-330 0 -530 197q-197 200 -197 502zM397 676q0 -196 115 -326q117 -129 309 -129q190 0 303 131q117 132 117 324q0 190 -117 319q-114 129 -303 129 q-185 0 -305 -129q-119 -128 -119 -319z" />
<glyph unicode="P" horiz-adv-x="1208" d="M135 0v1350h518q246 0 379 -133t133 -320q0 -197 -139 -330q-137 -131 -358 -131h-226v-436h-307zM440 664h160q132 0 196 63.5t64 163.5q0 101 -67.5 166t-190.5 65h-162v-458z" />
<glyph unicode="Q" horiz-adv-x="1646" d="M96 680q0 295 207 496q206 200 520 200q318 0 520 -202q203 -200 203 -498q0 -215 -110 -383q-113 -172 -301 -248q-2 -2 -2 -6l409 -100l-94 -244l-791 299q-262 47 -411 233q-150 187 -150 453zM401 676q0 -196 115 -326q117 -129 309 -129q188 0 305 129 q117 132 117 326q0 190 -117 319t-305 129q-185 0 -305 -129q-119 -128 -119 -319z" />
<glyph unicode="R" horiz-adv-x="1298" d="M135 0v1350h547q211 0 354 -119q148 -118 148 -324q0 -80 -29 -156.5t-91.5 -144t-150.5 -108.5l357 -498h-348l-357 551v29q153 18 235.5 98t82.5 186q0 117 -69.5 185.5t-188.5 68.5h-185v-1118h-305z" />
<glyph unicode="S" horiz-adv-x="1101" d="M66 84v278q83 -63 210 -106q118 -39 218 -39q108 0 171.5 38.5t63.5 111.5q0 121 -227 221q-167 74 -237 121q-181 120 -181 291v6q0 169 127 272q129 102 334 102q214 0 403 -86v-262q-73 48 -174 78q-105 31 -180 31q-94 0 -149.5 -34t-55.5 -99q0 -28 17 -52t52.5 -45 t70 -37.5t90 -41.5t92.5 -44q96 -51 155 -92q75 -49 121.5 -135t46.5 -188q0 -172 -131 -285q-128 -113 -371 -113q-280 0 -466 109z" />
<glyph unicode="T" horiz-adv-x="1144" d="M25 1118v236h1093v-236h-393v-1118h-305v1118h-395z" />
<glyph unicode="U" horiz-adv-x="1435" d="M137 530v822h305v-820q0 -133 73 -219t204 -86q129 0 201.5 83t72.5 212v830h303v-815q0 -251 -149 -406q-151 -154 -430 -154q-282 0 -431 147t-149 406z" />
<glyph unicode="V" horiz-adv-x="1312" d="M14 1350h326l315 -748h9l311 748h319l-608 -1375h-47z" />
<glyph unicode="W" horiz-adv-x="1966" d="M14 1350h336l283 -678h8l317 694h43l328 -694h8l277 678h334l-564 -1375h-45l-358 801h-8l-350 -801h-45z" />
<glyph unicode="X" horiz-adv-x="1374" d="M14 0l402 698l-375 652h328l317 -607l315 607h330l-379 -652l404 -698h-330l-340 649l-344 -649h-328z" />
<glyph unicode="Y" horiz-adv-x="1251" d="M14 1352h330l291 -570h8l266 570h326l-451 -817v-535h-305v535z" />
<glyph unicode="Z" horiz-adv-x="1181" d="M35 0v31l649 1085h-565v236h1020v-33l-643 -1086h624v-233h-1085z" />
<glyph unicode="[" horiz-adv-x="591" d="M129 -262v1751h397v-172h-164v-1417h164v-162h-397z" />
<glyph unicode="\" horiz-adv-x="702" d="M-33 1399h199l582 -1583h-201z" />
<glyph unicode="]" horiz-adv-x="591" d="M74 -100h162v1417h-162v172h395v-1751h-395v162z" />
<glyph unicode="^" horiz-adv-x="1034" d="M43 655l446 676h43l447 -676h-209l-258 404l-262 -404h-207z" />
<glyph unicode="_" horiz-adv-x="1015" d="M4 -141h1006v-144h-1006v144z" />
<glyph unicode="`" horiz-adv-x="1038" d="M229 1335l199 88l242 -366h-158z" />
<glyph unicode="a" horiz-adv-x="1064" d="M68 238q0 145 109.5 232t316.5 87h178v18q0 166 -209 166q-138 0 -283 -77v206q152 70 350 70q416 0 416 -393v-547h-229l-21 106h-6q-108 -129 -321 -129q-144 0 -222.5 73.5t-78.5 187.5zM334 279q0 -53 39.5 -83t103.5 -30q90 0 142.5 57t52.5 144v34h-144 q-194 0 -194 -122z" />
<glyph unicode="b" horiz-adv-x="1193" d="M102 0v1456h269v-631h6q101 113 287 113q204 0 331 -133t127 -346q0 -209 -131 -346q-133 -136 -346 -136q-92 0 -178 34t-135 98h-8l-29 -109h-193zM385 457q0 -119 62.5 -189.5t168.5 -70.5q105 0 172.5 73.5t67.5 186.5q0 110 -67 185t-171 75q-106 0 -169.5 -74 t-63.5 -186z" />
<glyph unicode="c" horiz-adv-x="901" d="M72 446q0 218 139 357q140 137 362 137q137 0 240 -41v-225q-82 49 -195 49q-119 0 -193.5 -72.5t-74.5 -195.5q0 -121 70 -190.5t192 -69.5q129 0 234 63v-219q-115 -62 -299 -62q-224 0 -350 132q-125 131 -125 337z" />
<glyph unicode="d" horiz-adv-x="1198" d="M70 442q0 220 131 357q133 139 334 139q171 0 278 -94l10 6v301q2 135 2 303h267v-727q2 -322 2 -727h-209l-37 106q-54 -63 -143.5 -96t-182.5 -33q-211 0 -332 127q-120 129 -120 338zM340 455q0 -118 64 -188t174 -70q102 0 169.5 75.5t67.5 186.5q0 113 -66 186.5 t-176 73.5q-103 0 -168 -75t-65 -189z" />
<glyph unicode="e" horiz-adv-x="1069" d="M72 461q0 205 131 342q133 139 340 139q210 0 331 -128.5t121 -348.5v-62h-649q21 -215 275 -215q167 0 329 107v-219q-150 -99 -358 -99q-251 0 -387 136q-133 136 -133 348zM354 575h387q-37 168 -188 168q-73 0 -126.5 -46t-72.5 -122z" />
<glyph unicode="f" horiz-adv-x="712" d="M10 707v178l152 28v152q0 203 107 313.5t309 110.5q90 0 196 -29v-213q-82 29 -151 29q-187 0 -187 -217v-146h260v-206h-260v-707h-274v707h-152z" />
<glyph unicode="g" horiz-adv-x="1062" d="M41 166v12l170 170q-94 82 -94 236q0 152 114 254t287 102q66 0 172 -29h326v-127q-23 -3 -144 -22q62 -86 62 -182q0 -140 -107 -234q-110 -96 -284 -96q-105 0 -189 35l-47 -78l445 -49q134 -17 194 -74.5t60 -169.5q0 -114 -113 -233q-59 -64 -164.5 -103t-236.5 -39 q-219 0 -322 80q-102 79 -102 186q0 150 141 242l-55 10q-54 10 -83.5 40t-29.5 69zM303 -111q0 -62 50.5 -101.5t140.5 -39.5q112 0 174 53q61 52 61 119t-102 76l-265 29q-59 -65 -59 -136zM369 596q0 -79 43 -125.5t118 -46.5q74 0 119 48.5t45 123.5q0 72 -47.5 120 t-116.5 48q-71 0 -116 -49t-45 -119z" />
<glyph unicode="h" horiz-adv-x="1130" d="M104 0v1456h269v-653h2q2 -2 4 -2q107 131 295 131q161 0 249.5 -93t88.5 -259v-580h-277v524q0 88 -40.5 140.5t-112.5 52.5q-89 0 -144 -64.5t-55 -183.5v-469h-279z" />
<glyph unicode="i" horiz-adv-x="540" d="M121 1217q0 62 46 106.5t107 44.5q65 0 108.5 -43.5t43.5 -107.5t-43.5 -109t-108.5 -45q-66 0 -109.5 45t-43.5 109zM129 0v913h281v-913h-281z" />
<glyph unicode="j" horiz-adv-x="522" d="M-133 -244q146 10 201 76t55 221v858h276v-876q0 -241 -117 -361t-325 -133q-15 41 -45 111q-31 62 -45 104zM109 1214q0 63 45.5 107.5t107.5 44.5q65 0 108.5 -43.5t43.5 -105.5q0 -64 -43.5 -109t-108.5 -45q-67 0 -110 43.5t-43 107.5z" />
<glyph unicode="k" horiz-adv-x="1081" d="M106 0v1456h285v-954l348 409h303l-378 -434l405 -477h-315l-363 444v-444h-285z" />
<glyph unicode="l" horiz-adv-x="512" d="M119 0v1456h278v-1456h-278z" />
<glyph unicode="m" horiz-adv-x="1705" d="M117 0v911h217l35 -110l8 -6q113 143 297 143q206 0 280 -176q108 178 301 178q177 0 254.5 -100.5t77.5 -311.5v-528h-276v537q0 81 -38 130.5t-106 49.5q-80 0 -128 -61.5t-48 -186.5v-469h-276v528q0 88 -38 138.5t-106 50.5q-80 0 -129 -63t-49 -179v-475h-276z" />
<glyph unicode="n" horiz-adv-x="1140" d="M117 0v911h215q9 -23 18 -71q9 -49 12 -54h9q121 148 325 148q157 0 241.5 -93.5t84.5 -260.5v-580h-277v522q0 86 -41.5 140.5t-109.5 54.5q-91 0 -146 -64t-55 -184v-469h-276z" />
<glyph unicode="o" horiz-adv-x="1163" d="M72 459q0 207 143 344t369 137q231 0 368 -137q140 -137 140 -344q0 -208 -142 -344q-141 -135 -366 -135q-236 0 -375 133q-137 134 -137 346zM348 463q0 -118 64.5 -190t173.5 -72q108 0 173.5 73.5t65.5 188.5q0 111 -66 183.5t-173 72.5q-105 0 -171.5 -73 t-66.5 -183z" />
<glyph unicode="p" horiz-adv-x="1208" d="M104 -442v1355h215l33 -122h8q53 70 138 108.5t178 38.5q214 0 337.5 -129t123.5 -342q0 -216 -131 -350q-129 -135 -334 -135q-180 0 -287 96l-4 -2l-4 -2v-516h-273zM391 455q0 -112 66 -185t174 -73q107 0 170 73.5t63 188.5q0 118 -63 188t-172 70q-102 0 -170 -75.5 t-68 -186.5z" />
<glyph unicode="q" horiz-adv-x="1200" d="M70 451q0 213 131 350q133 139 346 139q194 0 315 -133h8l29 106h195v-1355h-269v532h-2l-4 2q-106 -112 -293 -112q-207 0 -333 129q-123 129 -123 342zM338 457q0 -114 65 -187t170 -73q106 0 171 74.5t65 185.5q0 118 -64 188q-66 72 -170 72q-107 0 -172 -74 t-65 -186z" />
<glyph unicode="r" horiz-adv-x="774" d="M117 0v911h205l34 -145h11q41 81 113 125.5t159 44.5q66 0 119 -21v-251q-67 30 -140 30q-101 0 -163 -78.5t-62 -212.5v-403h-276z" />
<glyph unicode="s" horiz-adv-x="817" d="M45 57v234q66 -50 155 -81.5t158 -31.5q136 0 136 74q0 27 -23.5 50.5t-61 43t-83 40t-91 47t-83 58t-61 77.5t-23.5 102q0 122 94.5 195t249.5 73q152 0 301 -64v-219q-134 76 -260 76q-115 0 -115 -67q0 -20 23 -38.5t60.5 -35t82.5 -35.5t90 -45.5t82.5 -59.5 t60.5 -82.5t23 -109.5q0 -123 -98 -200.5t-273 -77.5q-202 0 -344 77z" />
<glyph unicode="t" horiz-adv-x="755" d="M35 707v153l172 55l199 295h45v-299h243v-204h-243v-363q0 -74 27.5 -107.5t90.5 -33.5q74 0 156 49v-211q-101 -64 -240 -64q-309 0 -309 320v410h-141z" />
<glyph unicode="u" horiz-adv-x="1124" d="M117 346v567h276v-528q0 -81 41 -134.5t109 -53.5q88 0 137 63.5t49 185.5v465h277v-911h-222l-32 125h-9q-109 -139 -292 -139q-334 0 -334 360z" />
<glyph unicode="v" horiz-adv-x="1073" d="M18 911h299l101 -200l117 -250h8q0 1 94 207l111 243h303l-492 -927h-49z" />
<glyph unicode="w" horiz-adv-x="1542" d="M8 911h285l201 -432h8l248 451h41l262 -451h8l196 432h279l-428 -927h-47l-291 524l-283 -524h-49z" />
<glyph unicode="x" horiz-adv-x="1052" d="M16 0l265 469l-250 442h282l213 -401l213 401h283l-250 -442l264 -469h-284l-226 428l-225 -428h-285z" />
<glyph unicode="y" horiz-adv-x="1007" d="M6 913h281l207 -581h12l213 581h274l-579 -1355h-269l224 499z" />
<glyph unicode="z" horiz-adv-x="903" d="M25 0v25l454 680h-391v206h778v-24l-454 -682h434v-205h-821z" />
<glyph unicode="{" horiz-adv-x="714" d="M111 637v35q131 30 131 215v239q0 111 20 191q26 82 79.5 128t152.5 46h143v-170h-47q-64 0 -89.5 -35.5t-25.5 -107.5v-297q0 -181 -137 -215v-11q137 -46 137 -266v-348q0 -71 24 -105t83 -34h55v-166h-137q-167 0 -219 119q-24 54 -31.5 104t-7.5 127v311 q0 213 -131 240z" />
<glyph unicode="|" horiz-adv-x="675" d="M236 -295v1819h204v-1819h-204z" />
<glyph unicode="}" horiz-adv-x="714" d="M84 -98h57q59 0 82 34t23 105v348q0 219 139 266v11q-139 38 -139 215v297q0 72 -24.5 107.5t-88.5 35.5h-49v170h143q254 0 254 -313v-289q0 -183 131 -213v-37q-131 -27 -131 -242v-325q0 -137 -41 -226q-50 -110 -217 -110h-139v166z" />
<glyph unicode="~" horiz-adv-x="1118" d="M51 551q95 225 285 225q72 0 215 -55t203 -55q107 0 174 131l139 -97q-88 -233 -283 -233q-85 0 -233 53t-199 53q-99 0 -162 -112z" />
<glyph unicode="&#xa2;" horiz-adv-x="1138" d="M182 627q0 187 107 315q108 132 280 166v229h162v-219q103 -6 193 -41v-223q-86 47 -207 47q-119 0 -192.5 -72.5t-73.5 -195.5q0 -119 70.5 -188.5t191.5 -69.5q139 0 243 61v-217q-77 -44 -225 -59v-223h-162v227q-183 24 -285 149t-102 314z" />
<glyph unicode="&#xa3;" d="M115 0v31q163 205 178 575h-135v166h139l4 146q3 99 31.5 178.5t72 130t102.5 84t118.5 47.5t122.5 14q149 0 282 -59v-230q-131 58 -233 58q-103 0 -161 -57.5t-58 -176.5l-3 -135h312v-166h-318q-9 -275 -96 -399h582v-207h-940z" />
<glyph unicode="&#xa5;" d="M49 1352h322l227 -590h6l223 590h314l-357 -709h297v-106h-964v106h282zM117 338v106h964v-106h-338v-338h-303v338h-323z" />
<glyph unicode="&#xa8;" horiz-adv-x="1089" d="M227 1227q0 54 38.5 90.5t90.5 36.5q55 0 91 -36.5t36 -90.5q0 -55 -36 -92t-91 -37q-56 0 -92.5 37t-36.5 92zM610 1227q0 54 37.5 90.5t89.5 36.5q55 0 91 -36.5t36 -90.5q0 -55 -36 -92t-91 -37q-56 0 -91.5 37t-35.5 92z" />
<glyph unicode="&#xa9;" horiz-adv-x="1765" d="M119 715q0 333 223 549q226 221 545 221q315 0 534 -223q221 -221 221 -547q0 -328 -223 -551q-219 -223 -538 -223q-332 0 -547 221t-215 553zM266 715q0 -265 174 -451q175 -184 441 -184q261 0 436 184q174 186 174 451q0 259 -176 444q-175 187 -430 187 q-262 0 -441 -185q-178 -184 -178 -446zM432 700q0 204 135 342q140 140 359 140q132 0 225 -37v-172q-90 41 -197 41q-137 0 -224 -84t-87 -230q0 -138 84 -220.5t219 -82.5q129 0 230 58l2 -172q-101 -52 -258 -52q-232 0 -361 129q-127 133 -127 340z" />
<glyph unicode="&#xab;" horiz-adv-x="999" d="M68 412v20l264 385h252l-277 -389l277 -401h-254zM436 412v20l266 385h250l-276 -389l276 -401h-254z" />
<glyph unicode="&#xad;" horiz-adv-x="765" d="M109 412v182h546v-182h-546z" />
<glyph unicode="&#xae;" horiz-adv-x="1226" d="M111 920q0 214 145 362q148 148 358 148q214 0 359 -148q147 -144 147 -362q0 -217 -147 -367q-147 -147 -359 -147q-227 0 -366 145q-137 143 -137 369zM211 920q0 -178 113 -297t290 -119q172 0 287 121t115 295q0 169 -115 290t-287 121q-168 0 -286 -121 q-117 -120 -117 -290zM408 647v563h231q91 0 153 -50.5t62 -135.5q0 -108 -119 -160l148 -217h-154l-147 248v18q133 15 133 103q0 41 -27 63.5t-72 22.5h-71v-455h-137z" />
<glyph unicode="&#xb4;" horiz-adv-x="1038" d="M395 1057l244 366l197 -88l-283 -278h-158z" />
<glyph unicode="&#xb8;" horiz-adv-x="897" d="M262 -338q81 -37 166 -37q51 0 84 24t33 62q0 35 -31.5 55.5t-77.5 20.5q-36 0 -71 -14q-13 5 -39 30l141 273q75 -18 100 -27l-86 -153q113 -6 173.5 -57t60.5 -128q0 -87 -72.5 -148t-202.5 -61q-93 0 -178 33v127z" />
<glyph unicode="&#xbb;" horiz-adv-x="999" d="M57 27l277 401l-277 389h250l266 -385v-20l-262 -385h-254zM426 27l276 401l-276 389h252l264 -385v-20l-262 -385h-254z" />
<glyph unicode="&#x2c6;" horiz-adv-x="1038" d="M178 1057l324 356h43l313 -356h-215l-125 151l-135 -151h-205z" />
<glyph unicode="&#x2da;" horiz-adv-x="1046" d="M297 1270q0 100 69 169.5t169 69.5q104 0 173.5 -69.5t69.5 -169.5q0 -97 -70 -162.5t-173 -65.5t-170.5 65.5t-67.5 162.5zM440 1270q0 -39 27 -66.5t68 -27.5q42 0 70 27.5t28 66.5q0 45 -28 75.5t-70 30.5q-38 0 -66.5 -31.5t-28.5 -74.5z" />
<glyph unicode="&#x2dc;" horiz-adv-x="1038" d="M199 1182q31 76 82.5 124t111.5 48q48 0 139 -54q92 -53 132 -53q57 0 116 115l76 -113q-65 -170 -186 -170q-57 0 -146 51q-91 52 -127 52q-62 0 -114 -113z" />
<glyph unicode="&#x401;" horiz-adv-x="1165" d="M137 0v1352h916v-236h-611v-299h547v-227h-547v-354h650v-236h-955zM285 1622q0 56 38.5 93.5t90.5 37.5q55 0 92 -37.5t37 -89.5q0 -56 -37 -93.5t-92 -37.5q-56 0 -92.5 36.5t-36.5 90.5zM670 1622q0 56 37.5 93.5t89.5 37.5q54 0 90.5 -37.5t36.5 -89.5 q0 -56 -36 -93.5t-91 -37.5q-56 0 -91.5 36t-35.5 91z" />
<glyph unicode="&#x402;" horiz-adv-x="1687" d="M25 1118v236h1134v-236h-434v-342q174 68 346 68q240 0 385 -133q148 -133 148 -363q0 -211 -117 -377q-111 -163 -291 -247l-184 131q135 71 207.5 190.5t72.5 251.5q0 151 -81.5 239.5t-231.5 88.5q-121 0 -254 -54v-571h-305v1118h-395z" />
<glyph unicode="&#x403;" horiz-adv-x="1095" d="M137 0v1352h926v-236h-621v-1116h-305zM420 1470l272 353l211 -90l-307 -263h-176z" />
<glyph unicode="&#x404;" horiz-adv-x="1273" d="M90 670q0 297 201 504q201 204 530 204q206 0 342 -59v-254q-138 63 -299 63q-164 0 -284 -86t-152 -233h551v-211h-569q13 -178 130 -277.5t308 -99.5q180 0 356 92v-260q-162 -76 -391 -76q-339 0 -532 193q-191 194 -191 500z" />
<glyph unicode="&#x405;" horiz-adv-x="1101" d="M66 84v278q83 -63 210 -106q118 -39 218 -39q108 0 171.5 38.5t63.5 111.5q0 121 -227 221q-167 74 -237 121q-184 122 -181 297q0 169 127 272q129 102 334 102q214 0 403 -86v-262q-73 48 -174 78q-105 31 -180 31q-94 0 -149.5 -34t-55.5 -99q0 -28 17 -52t52.5 -45 t70 -37.5t90 -41.5t92.5 -44q96 -51 155 -92q75 -49 121.5 -135t46.5 -188q0 -172 -131 -285q-128 -113 -371 -113q-280 0 -466 109z" />
<glyph unicode="&#x406;" horiz-adv-x="604" d="M147 0v1352h306v-1352h-306z" />
<glyph unicode="&#x407;" horiz-adv-x="663" d="M12 1622q0 56 38.5 93.5t90.5 37.5q55 0 92 -37.5t37 -89.5q0 -56 -37 -93.5t-92 -37.5q-57 0 -93 36.5t-36 90.5zM174 0v1352h305v-1352h-305zM397 1622q0 56 37.5 93.5t89.5 37.5q54 0 90.5 -37.5t36.5 -89.5q0 -56 -36 -93.5t-91 -37.5q-56 0 -91.5 36t-35.5 91z" />
<glyph unicode="&#x408;" horiz-adv-x="1017" d="M29 45v256q142 -80 274 -80q143 0 204.5 80t61.5 244v807h310v-781q0 -198 -56 -340q-103 -256 -471 -256q-186 0 -323 70z" />
<glyph unicode="&#x409;" horiz-adv-x="2121" d="M4 164q144 30 197 98q52 67 67 221l76 869h903v-512h287q120 0 213.5 -29.5t148 -74t89.5 -104.5t47 -114t12 -110q0 -188 -129 -299q-130 -109 -320 -109h-653v1130h-326l-55 -587q-9 -85 -14 -124.5t-17 -93t-32 -104.5q-41 -113 -128.5 -177t-248.5 -91zM1247 225h279 q95 0 154 53.5t59 145.5t-65 147.5t-165 55.5h-262v-402z" />
<glyph unicode="&#x40a;" horiz-adv-x="2138" d="M139 0v1354h305v-527h510v527h308v-525h286q146 0 254 -41t160 -112q98 -122 98 -273q0 -186 -129 -294q-127 -109 -319 -109h-658v612h-510v-612h-305zM1262 227h278q99 0 156 49.5t57 141.5q0 94 -63 146t-166 52h-262v-389z" />
<glyph unicode="&#x40b;" horiz-adv-x="1658" d="M25 1118v236h1126v-236h-426v-348q192 64 377 64q208 0 318 -98.5t110 -286.5v-449h-307v367q0 119 -57 176t-185 57q-125 0 -256 -49v-551h-305v1118h-395z" />
<glyph unicode="&#x40c;" horiz-adv-x="1320" d="M137 0v1352h307v-621l492 621h332l-527 -652q60 -60 279 -348q216 -279 285 -352h-344q-72 76 -261 336q-198 273 -256 334v-670h-307zM510 1475l272 352l211 -90l-307 -262h-176z" />
<glyph unicode="&#x40e;" horiz-adv-x="1269" d="M10 1352h328l291 -723h8l309 723h314l-519 -1135q-64 -137 -152.5 -195.5t-211.5 -58.5q-124 0 -246 55v248q132 -69 213 -69q99 0 145 100l15 33zM340 1784h141q4 -84 52 -132t124 -48q71 0 116 49.5t56 130.5h140q-9 -136 -88 -230q-78 -96 -228 -96q-147 0 -229 94 q-81 96 -84 232z" />
<glyph unicode="&#x40f;" horiz-adv-x="1439" d="M137 0v1352h307v-1119h549v1119h305v-1352h-444v-334h-270v334h-447z" />
<glyph unicode="&#x410;" horiz-adv-x="1355" d="M20 0l642 1376h45l630 -1376h-309l-92 213h-518l-94 -213h-304zM510 422h336l-162 375h-8z" />
<glyph unicode="&#x411;" horiz-adv-x="1320" d="M137 0v1352h959v-224h-650v-290h285q120 0 214 -29.5t148.5 -74t89.5 -104.5t47.5 -114t12.5 -110q0 -216 -153 -310q-152 -96 -388 -96h-565zM446 225h199q124 0 199 33q92 39 92 164q0 95 -63.5 149t-165.5 54h-261v-400z" />
<glyph unicode="&#x412;" horiz-adv-x="1308" d="M139 0v1354h602q178 0 285 -94q111 -91 111 -244q0 -81 -41.5 -157t-114.5 -122v-8q114 -41 175 -131.5t61 -200.5q0 -167 -121 -282t-308 -115h-649zM436 236h277q109 0 160 52.5t51 133.5q0 84 -60.5 132t-165.5 48h-262v-366zM436 819h228q81 0 133.5 35.5t52.5 114.5 q0 70 -46.5 112.5t-129.5 42.5h-238v-305z" />
<glyph unicode="&#x413;" horiz-adv-x="1095" d="M137 0v1352h926v-236h-621v-1116h-305z" />
<glyph unicode="&#x414;" horiz-adv-x="1675" d="M14 233h172q99 95 138 218q41 119 69 337l70 562h975v-1117h188v-555h-258v322h-1098v-322h-256v555zM498 233h630v895h-417l-33 -303q-27 -225 -68 -360q-42 -138 -112 -232z" />
<glyph unicode="&#x415;" horiz-adv-x="1165" d="M137 0v1352h916v-236h-611v-299h547v-227h-547v-354h650v-236h-955z" />
<glyph unicode="&#x416;" horiz-adv-x="2021" d="M12 0l545 700l-508 652h332l475 -623v623h305v-623l477 623h332l-510 -652l547 -700h-346l-500 668v-668h-305v668l-500 -668h-344z" />
<glyph unicode="&#x417;" horiz-adv-x="1196" d="M59 55v258q184 -96 400 -96q167 0 255.5 57t88.5 156q0 84 -72.5 127t-198.5 43h-170v225h160q102 0 172 43t70 105q0 74 -74 117t-194 43q-74 0 -205 -23q-127 -22 -187 -53v250q186 73 437 73q81 0 155 -12t141.5 -39t116.5 -67t78 -101t29 -137q0 -88 -58 -170.5 t-155 -118.5v-6q121 -30 187.5 -117.5t66.5 -201.5q0 -195 -160 -316q-158 -119 -442 -119q-252 0 -441 80z" />
<glyph unicode="&#x418;" horiz-adv-x="1490" d="M137 -23v1375h303v-809h9l856 835h45v-1378h-303v807h-7l-860 -830h-43z" />
<glyph unicode="&#x419;" horiz-adv-x="1490" d="M137 -23v1375h303v-809h9l856 835h45v-1378h-303v807h-7l-860 -830h-43zM467 1784h141q4 -85 52 -132.5t124 -47.5q72 0 116.5 49t55.5 131h140q-9 -136 -88 -234q-78 -96 -228 -96q-143 0 -225 92.5t-88 237.5z" />
<glyph unicode="&#x41a;" horiz-adv-x="1320" d="M137 0v1352h307v-621l492 621h332l-527 -652q60 -60 279 -348q216 -279 285 -352h-344q-72 76 -261 336q-198 273 -256 334v-670h-307z" />
<glyph unicode="&#x41b;" horiz-adv-x="1398" d="M4 162q146 35 197 98q50 64 65 223l78 867h913v-1350h-305q0 311 -2 563v567h-336l-63 -669q-27 -228 -121 -355q-89 -121 -311 -151z" />
<glyph unicode="&#x41c;" horiz-adv-x="1669" d="M137 0v1374h45l654 -756l651 756h43v-1374h-295v659q-3 3 -8 3l-369 -412h-45l-377 412q-3 -3 -6 -3v-659h-293z" />
<glyph unicode="&#x41d;" horiz-adv-x="1421" d="M137 0v1352h305v-531h535v531h305v-1352h-305v584h-535v-584h-305z" />
<glyph unicode="&#x41e;" horiz-adv-x="1636" d="M90 676q0 294 207 498q208 202 522 202q318 0 520 -202q203 -200 203 -498q0 -301 -205 -500q-202 -199 -520 -199q-330 0 -530 197q-197 200 -197 502zM397 676q0 -196 115 -326q117 -129 309 -129q190 0 303 131q117 132 117 324q0 190 -117 319q-114 129 -303 129 q-185 0 -305 -129q-119 -128 -119 -319z" />
<glyph unicode="&#x41f;" horiz-adv-x="1429" d="M137 0v1352h1151v-1352h-305v1116h-541v-1116h-305z" />
<glyph unicode="&#x420;" horiz-adv-x="1208" d="M135 0v1350h518q246 0 379 -133t133 -320q0 -197 -139 -330q-137 -131 -358 -131h-226v-436h-307zM440 664h160q132 0 196 63.5t64 163.5q0 101 -67.5 166t-190.5 65h-162v-458z" />
<glyph unicode="&#x421;" horiz-adv-x="1273" d="M92 670q0 297 201 504q201 204 530 204q211 0 342 -55v-256q-138 63 -299 63q-197 0 -331 -122t-134 -338q0 -208 120.5 -327.5t328.5 -119.5q178 0 356 90l2 -258q-165 -80 -393 -80q-337 0 -532 195q-191 194 -191 500z" />
<glyph unicode="&#x422;" horiz-adv-x="1144" d="M25 1118v236h1093v-236h-393v-1118h-305v1118h-395z" />
<glyph unicode="&#x423;" horiz-adv-x="1269" d="M10 1352h328l291 -723h8l309 723h314l-519 -1135q-64 -137 -152.5 -195.5t-211.5 -58.5q-124 0 -246 55v248q132 -69 213 -69q99 0 145 100l15 33z" />
<glyph unicode="&#x424;" horiz-adv-x="1810" d="M84 698q0 238 188 394q190 159 484 174v86h301v-86q294 -15 479 -176q186 -158 186 -392t-180 -389q-177 -155 -487 -182v-127h-299v127q-312 15 -492 170t-180 401zM379 696q0 -143 100 -238t277 -114v707q-169 -13 -273 -112t-104 -243zM1053 344q171 10 275 108 t104 246q0 141 -107 242q-105 102 -272 111v-707z" />
<glyph unicode="&#x425;" horiz-adv-x="1374" d="M14 0l402 698l-375 652h328l317 -607l315 607h330l-379 -652l404 -698h-330l-340 649l-344 -649h-328z" />
<glyph unicode="&#x426;" horiz-adv-x="1515" d="M137 0v1352h307v-1119h549v1119h305v-1119h195v-555h-258v322h-1098z" />
<glyph unicode="&#x427;" horiz-adv-x="1380" d="M117 940v412h307v-365q0 -223 246 -223q134 0 262 49v539h307v-1352h-307v602q-189 -53 -350 -53q-219 0 -342 101t-123 290z" />
<glyph unicode="&#x428;" horiz-adv-x="2070" d="M139 0v1354h305v-1121h437v1121h307v-1121h438v1121h305v-1354h-1792z" />
<glyph unicode="&#x429;" horiz-adv-x="2144" d="M137 0v1352h307v-1119h435v1119h307v-1119h438v1119h305v-1119h195v-555h-258v322h-1729z" />
<glyph unicode="&#x42a;" horiz-adv-x="1732" d="M14 1118v234h840v-514h289q120 0 213.5 -29.5t148 -74t89.5 -104.5t47 -114t12 -110q0 -186 -129 -297q-130 -109 -320 -109h-655v1118h-535zM854 223h203q145 0 217 43.5t72 155.5q0 95 -64 149t-166 54h-262v-402z" />
<glyph unicode="&#x42b;" horiz-adv-x="1832" d="M137 0v1352h307v-514h287q120 0 214 -29.5t148.5 -74t89.5 -104.5t47.5 -114t12.5 -110q0 -186 -129 -297q-130 -109 -319 -109h-658zM444 223h201q124 0 199 33q92 42 92 166q0 95 -63.5 149t-165.5 54h-263v-402zM1386 0v1352h306v-1352h-306z" />
<glyph unicode="&#x42c;" horiz-adv-x="1320" d="M139 0v1354h307v-514h287q120 0 213.5 -29.5t148 -74t89.5 -104.5t47 -114t12 -110q0 -188 -129 -299q-127 -109 -317 -109h-658zM446 225h279q98 0 155.5 52t57.5 147q0 92 -64.5 147.5t-164.5 55.5h-263v-402z" />
<glyph unicode="&#x42d;" horiz-adv-x="1273" d="M63 53v129q3 89 3 131q179 -92 356 -92q194 0 310 102t128 275h-567v211h549q-25 154 -132.5 236.5t-279.5 82.5q-183 0 -321 -63v252q146 61 380 61q341 0 515 -198q176 -197 176 -506q0 -296 -191 -496q-192 -201 -530 -201q-231 0 -396 76z" />
<glyph unicode="&#x42e;" horiz-adv-x="2203" d="M137 0v1350h307v-549h271q34 249 225 413q189 162 467 162q316 0 510 -200q192 -198 192 -500q0 -300 -194 -500q-193 -199 -510 -199q-289 0 -483 173q-193 172 -211 438h-267v-588h-307zM1006 670q0 -190 110 -318q115 -127 291 -127q182 0 291 127q106 124 106 318 q0 195 -106 319q-106 127 -291 127q-180 0 -291 -129q-110 -128 -110 -317z" />
<glyph unicode="&#x42f;" horiz-adv-x="1300" d="M29 0l366 512q-66 25 -117 61t-81 74.5t-49 83.5t-26 84t-7 80q0 220 143 336q143 119 356 119h547v-1350h-305v1118h-192q-110 0 -179 -66t-69 -171q0 -88 88 -170q90 -84 246 -105v-28l-383 -578h-338z" />
<glyph unicode="&#x430;" horiz-adv-x="1064" d="M68 238q0 145 109.5 232t316.5 87h178v18q0 166 -209 166q-138 0 -283 -77v206q152 70 350 70q416 0 416 -393v-547h-229l-21 106h-6q-108 -129 -321 -129q-144 0 -222.5 73.5t-78.5 187.5zM334 279q0 -53 39.5 -83t103.5 -30q90 0 142.5 57t52.5 144v34h-144 q-194 0 -194 -122z" />
<glyph unicode="&#x431;" horiz-adv-x="1163" d="M70 543q0 567 393 772q131 71 440 182l137 -164q-84 -36 -202 -80q-145 -54 -199 -82q-266 -126 -313 -387h10q43 66 127 104t180 38q206 0 330 -133q123 -132 123 -340q0 -200 -138 -338q-135 -135 -366 -135q-271 0 -397 153q-125 152 -125 410zM354 459 q0 -115 63 -187.5t173 -72.5q107 0 172 73t65 187q0 115 -63.5 187.5t-171.5 72.5q-103 0 -170.5 -75t-67.5 -185z" />
<glyph unicode="&#x432;" horiz-adv-x="1083" d="M117 0v913h481q356 0 356 -233q0 -114 -108 -176v-8q85 -27 126.5 -90.5t41.5 -139.5q0 -117 -89.5 -191.5t-230.5 -74.5h-577zM391 563h207q92 0 92 80q0 37 -26 60.5t-68 23.5h-205v-164zM395 193h236q53 0 83.5 27.5t30.5 70.5q0 40 -30 67t-80 27h-240v-192z" />
<glyph unicode="&#x433;" horiz-adv-x="915" d="M117 0v911h772v-202h-494v-709h-278z" />
<glyph unicode="&#x434;" horiz-adv-x="1304" d="M18 205h154q96 87 123 289l53 417h770v-706h160v-465h-231v260h-799v-260h-230v465zM434 205h406v504h-273l-12 -107q-29 -273 -121 -397z" />
<glyph unicode="&#x435;" horiz-adv-x="1069" d="M72 461q0 205 131 342q133 139 340 139q210 0 331 -128.5t121 -348.5v-62h-649q21 -215 275 -215q167 0 329 107v-219q-150 -99 -358 -99q-251 0 -387 136q-133 136 -133 348zM354 575h387q-37 168 -188 168q-73 0 -126.5 -46t-72.5 -122z" />
<glyph unicode="&#x436;" horiz-adv-x="1638" d="M10 0l393 475l-366 436h301l338 -407v407h285v-407l337 407h301l-368 -436l395 -475h-313l-352 444v-444h-285v444l-354 -444h-312z" />
<glyph unicode="&#x437;" horiz-adv-x="907" d="M63 37v223q118 -74 285 -74q219 0 219 109q0 78 -131 78h-153v196h135q129 0 129 78q0 82 -180 82q-150 0 -269 -61v217q122 51 320 51q188 0 290.5 -64t102.5 -186q0 -59 -39.5 -112t-114.5 -82q87 -24 134 -81t47 -126q0 -143 -121.5 -226.5t-331.5 -83.5 q-192 0 -322 62z" />
<glyph unicode="&#x438;" horiz-adv-x="1153" d="M117 -12v923h276v-477h6l584 484h49v-918h-276v455h-6l-582 -467h-51z" />
<glyph unicode="&#x439;" horiz-adv-x="1153" d="M117 -12v923h276v-477h6l584 484h49v-918h-276v455h-6l-582 -467h-51zM289 1374h141q4 -85 52 -132.5t124 -47.5q72 0 116.5 49t55.5 131h140q-9 -133 -89 -233q-79 -97 -227 -97q-143 0 -225 92.5t-88 237.5z" />
<glyph unicode="&#x43a;" horiz-adv-x="1091" d="M117 0v911h284v-409l349 409h303l-379 -434l405 -477h-315l-363 444v-444h-284z" />
<glyph unicode="&#x43b;" horiz-adv-x="1099" d="M10 152q111 15 148 75q37 63 49 197l47 489h727v-913h-276v709h-220l-16 -160l-12 -133q-8 -96 -17 -144.5t-32 -107.5q-32 -91 -105 -137.5t-211 -65.5q-43 95 -82 191z" />
<glyph unicode="&#x43c;" horiz-adv-x="1409" d="M117 0v924h51l545 -498l526 498h53v-924h-276v432l-283 -274h-41l-303 274v-432h-272z" />
<glyph unicode="&#x43d;" horiz-adv-x="1150" d="M117 0v911h276v-338h361v338h278v-911h-278v373h-359v-373h-278z" />
<glyph unicode="&#x43e;" horiz-adv-x="1163" d="M72 459q0 207 143 344t369 137q231 0 368 -137q140 -137 140 -344q0 -208 -142 -344q-141 -135 -366 -135q-236 0 -375 133q-137 134 -137 346zM348 463q0 -118 64.5 -190t173.5 -72q108 0 173.5 73.5t65.5 188.5q0 111 -66 183.5t-173 72.5q-105 0 -171.5 -73 t-66.5 -183z" />
<glyph unicode="&#x43f;" horiz-adv-x="1148" d="M117 0v913h911v-913h-276v698h-359v-698h-276z" />
<glyph unicode="&#x440;" horiz-adv-x="1220" d="M106 -442v1355h216l32 -122h8q53 70 138 108.5t178 38.5q214 0 337.5 -129t123.5 -342q0 -216 -131 -350q-129 -135 -334 -135q-180 0 -287 96q-1 0 -4 -2t-4 -2v-516h-273zM393 455q0 -112 66 -185t174 -73q107 0 170 73.5t63 188.5q0 118 -63 188t-172 70 q-102 0 -170 -75.5t-68 -186.5z" />
<glyph unicode="&#x441;" horiz-adv-x="901" d="M72 446q0 218 139 357q140 137 362 137q137 0 240 -41v-225q-82 49 -195 49q-119 0 -193.5 -72.5t-74.5 -195.5q0 -121 70 -190.5t192 -69.5q129 0 234 63v-219q-115 -62 -299 -62q-224 0 -350 132q-125 131 -125 337z" />
<glyph unicode="&#x442;" horiz-adv-x="940" d="M14 705v206h910v-206h-318v-705h-272v705h-320z" />
<glyph unicode="&#x443;" horiz-adv-x="1007" d="M6 913h281l207 -581h12l213 581h274l-579 -1355h-269l224 499z" />
<glyph unicode="&#x444;" horiz-adv-x="1507" d="M63 457q0 195 150 321q151 127 403 148v530h269v-530q261 -12 409 -142t148 -329q0 -197 -152 -334q-154 -135 -405 -144v-210q2 -92 2 -209h-271v422q-270 12 -411 147q-142 136 -142 330zM334 457q0 -118 78 -194.5t206 -82.5v543q-119 -3 -204 -82q-80 -77 -80 -184z M887 180q124 6 205.5 85t81.5 192q0 116 -76 188t-211 82v-547z" />
<glyph unicode="&#x445;" horiz-adv-x="1052" d="M16 0l265 469l-250 442h282l213 -401l213 401h283l-250 -442l264 -469h-284l-226 428l-225 -428h-285z" />
<glyph unicode="&#x446;" horiz-adv-x="1216" d="M117 0v913h276v-702h359v702h276v-700h158v-473h-234v260h-835z" />
<glyph unicode="&#x447;" horiz-adv-x="1118" d="M92 621v290h277v-211q0 -200 147 -200q51 0 107.5 29.5t91.5 82.5v299h284v-911h-284v401q-128 -96 -303 -96q-161 0 -240.5 76.5t-79.5 239.5z" />
<glyph unicode="&#x448;" horiz-adv-x="1697" d="M117 0v911h278v-700h312v700h276v-700h317v702h279v-913h-1462z" />
<glyph unicode="&#x449;" horiz-adv-x="1761" d="M117 0v911h278v-700h312v700h276v-700h317v702h279v-700h156v-473h-232v260h-1386z" />
<glyph unicode="&#x44a;" horiz-adv-x="1382" d="M6 709v204h674v-280h272q154 0 258 -84q103 -83 103 -230q0 -146 -94 -232.5t-248 -86.5h-568v709h-397zM680 184h213q70 0 112 37.5t42 102.5q0 63 -45 100t-119 37h-203v-277z" />
<glyph unicode="&#x44b;" horiz-adv-x="1542" d="M117 0v913h278v-280h273q154 0 258 -84q102 -83 102 -230q0 -145 -94.5 -232t-247.5 -87h-569zM395 184h213q70 0 112 37.5t42 102.5q0 63 -45 100t-119 37h-203v-277zM1145 0v911h278v-911h-278z" />
<glyph unicode="&#x44c;" horiz-adv-x="1095" d="M117 0v913h278v-280h273q154 0 258 -84q102 -83 102 -230q0 -145 -94.5 -232t-247.5 -87h-569zM395 184h213q70 0 112 37.5t42 102.5q0 63 -45 100t-119 37h-203v-277z" />
<glyph unicode="&#x44d;" horiz-adv-x="901" d="M57 39v219q103 -63 238 -63q96 0 160.5 45.5t83.5 124.5h-306v200h299q-18 74 -80.5 115t-150.5 41q-121 0 -213 -51v219q139 53 272 53q212 0 340 -131q129 -129 129 -352q0 -207 -127 -346q-127 -136 -348 -136q-185 0 -297 62z" />
<glyph unicode="&#x44e;" horiz-adv-x="1652" d="M119 0v911h276v-358h201q30 170 162 278q133 109 327 109q232 0 363 -137q133 -136 133 -344q0 -210 -137 -344q-138 -135 -359 -135q-214 0 -346 114q-132 117 -147 303h-197v-397h-276zM858 461q0 -119 62 -191.5t170 -72.5q104 0 167.5 74.5t63.5 189.5 q0 112 -63.5 185t-167.5 73q-103 0 -167.5 -74t-64.5 -184z" />
<glyph unicode="&#x44f;" horiz-adv-x="1071" d="M18 0l287 360q-95 30 -149 100.5t-54 155.5q0 139 98 217t265 78h485v-911h-274v723h-133q-80 0 -122 -39t-42 -104q0 -60 55.5 -103.5t155.5 -50.5v-41l-275 -385h-297z" />
<glyph unicode="&#x451;" horiz-adv-x="1069" d="M72 461q0 205 131 342q133 139 340 139q210 0 331 -128.5t121 -348.5v-62h-649q21 -215 275 -215q167 0 329 107v-219q-150 -99 -358 -99q-251 0 -387 136q-133 136 -133 348zM233 1241q0 54 38.5 90.5t90.5 36.5q55 0 91 -36.5t36 -90.5q0 -55 -36 -92t-91 -37 q-56 0 -92.5 37t-36.5 92zM354 575h387q-37 168 -188 168q-73 0 -126.5 -46t-72.5 -122zM616 1241q0 54 37.5 90.5t89.5 36.5q55 0 91 -36.5t36 -90.5q0 -55 -36 -92t-91 -37q-56 0 -91.5 37t-35.5 92z" />
<glyph unicode="&#x452;" horiz-adv-x="1181" d="M10 1122v129h96v205h269v-205h356v-129h-356v-321q1 0 2 -0.5t3.5 -1.5t4.5 -2q115 133 311 133q190 0 302 -127t112 -371q0 -203 -113 -377q-114 -175 -272 -266l-180 107q293 173 293 493q0 163 -64 240.5t-176 77.5q-92 0 -157.5 -62.5t-65.5 -167.5v-477h-269v1122 h-96z" />
<glyph unicode="&#x453;" horiz-adv-x="915" d="M117 0v911h772v-202h-494v-709h-278zM328 1057l243 366l197 -88l-283 -278h-157z" />
<glyph unicode="&#x454;" horiz-adv-x="901" d="M72 446q0 218 139 357q140 137 362 137q137 0 240 -41v-225q-82 49 -195 49q-86 0 -153.5 -43.5t-93.5 -116.5h295v-201h-304q24 -76 90.5 -121.5t159.5 -45.5q129 0 234 63v-219q-115 -62 -299 -62q-224 0 -350 132q-125 131 -125 337z" />
<glyph unicode="&#x455;" horiz-adv-x="817" d="M45 57v234q66 -50 155 -81.5t158 -31.5q136 0 136 74q0 27 -23.5 50.5t-61 43t-83 40t-91 47t-83 58t-61 77.5t-23.5 102q0 122 94.5 195t249.5 73q152 0 301 -64v-219q-134 76 -260 76q-115 0 -115 -67q0 -20 23 -38.5t60.5 -35t82.5 -35.5t90 -45.5t82.5 -59.5 t60.5 -82.5t23 -109.5q0 -123 -98 -200.5t-273 -77.5q-202 0 -344 77z" />
<glyph unicode="&#x456;" horiz-adv-x="540" d="M121 1217q0 62 46 106.5t107 44.5q65 0 108.5 -43.5t43.5 -107.5t-43.5 -109t-108.5 -45q-66 0 -109.5 45t-43.5 109zM129 0v913h281v-913h-281z" />
<glyph unicode="&#x457;" horiz-adv-x="540" d="M-43 1227q0 54 38.5 90.5t90.5 36.5q55 0 91 -36.5t36 -90.5q0 -55 -36 -92t-91 -37q-56 0 -92.5 37t-36.5 92zM129 0v913h281v-913h-281zM340 1227q0 54 37.5 90.5t89.5 36.5q55 0 91 -36.5t36 -90.5q0 -55 -36 -92t-91 -37q-56 0 -91.5 37t-35.5 92z" />
<glyph unicode="&#x458;" horiz-adv-x="522" d="M-133 -244q146 10 201 76t55 221v858h276v-876q0 -241 -117 -361t-325 -133q-15 41 -45 111q-31 62 -45 104zM109 1214q0 63 45.5 107.5t107.5 44.5q65 0 108.5 -43.5t43.5 -105.5q0 -64 -43.5 -109t-108.5 -45q-67 0 -110 43.5t-43 107.5z" />
<glyph unicode="&#x459;" horiz-adv-x="1658" d="M10 152q111 15 148 75q37 63 49 197l47 487h721v-309h262q158 0 256 -81t98 -224q0 -139 -92.5 -218t-243.5 -79h-557v709h-213l-22 -222l-10 -106q-1 -13 -7 -47.5t-8 -46.5q-7 -37 -14.5 -64.5t-14.5 -44t-22 -51.5q-65 -142 -295 -166q-43 95 -82 191zM975 172h209 q64 0 103.5 35t39.5 94t-42 95t-109 36h-201v-260z" />
<glyph unicode="&#x45a;" horiz-adv-x="1671" d="M117 0v911h276v-321h330v321h274v-319h252q158 0 256.5 -80t98.5 -219q0 -137 -92.5 -215t-241.5 -78h-547v408h-328v-408h-278zM997 172h199q68 0 106.5 32t38.5 91q0 113 -153 113h-191v-236z" />
<glyph unicode="&#x45b;" horiz-adv-x="1130" d="M12 1120v129h92v207h269v-207h344v-129h-344v-317h2q2 -2 4 -2q116 137 295 137q161 0 249.5 -94t88.5 -264v-580h-277v524q0 80 -43.5 136.5t-109.5 56.5q-89 0 -144 -64.5t-55 -183.5v-469h-279v1120h-92z" />
<glyph unicode="&#x45c;" horiz-adv-x="1091" d="M117 0v911h284v-409l349 409h303l-379 -434l405 -477h-315l-363 444v-444h-284zM401 1057l244 366l197 -88l-283 -278h-158z" />
<glyph unicode="&#x45e;" horiz-adv-x="1007" d="M6 913h281l207 -581h12l213 581h274l-579 -1355h-269l224 499zM213 1386h141q4 -85 52.5 -132.5t124.5 -47.5q72 0 116.5 49t55.5 131h139q-9 -135 -88 -233q-78 -96 -228 -96q-143 0 -225 92t-88 237z" />
<glyph unicode="&#x45f;" horiz-adv-x="1173" d="M131 0v911h277v-700h352v702h276v-913h-334v-285h-237v285h-334z" />
<glyph unicode="&#x490;" horiz-adv-x="1124" d="M137 0v1352h719v237h246v-463h-660v-1126h-305z" />
<glyph unicode="&#x491;" horiz-adv-x="911" d="M117 0v911h557v224h215v-426h-494v-709h-278z" />
<glyph unicode="&#x4d9;" horiz-adv-x="1089" d="M88 455q0 35 2 45h649q-6 123 -76.5 186.5t-193.5 63.5q-170 0 -328 -103v195q150 100 381 100q241 0 366.5 -130.5t125.5 -352.5q0 -207 -131 -344q-132 -138 -340 -138q-210 0 -332.5 130t-122.5 348zM338 389q8 -99 58.5 -155t135.5 -56t141 59t64 152h-399z" />
<glyph unicode="&#x2000;" horiz-adv-x="913" />
<glyph unicode="&#x2001;" horiz-adv-x="1827" />
<glyph unicode="&#x2002;" horiz-adv-x="913" />
<glyph unicode="&#x2003;" horiz-adv-x="1827" />
<glyph unicode="&#x2004;" horiz-adv-x="609" />
<glyph unicode="&#x2005;" horiz-adv-x="456" />
<glyph unicode="&#x2006;" horiz-adv-x="304" />
<glyph unicode="&#x2007;" horiz-adv-x="304" />
<glyph unicode="&#x2008;" horiz-adv-x="228" />
<glyph unicode="&#x2009;" horiz-adv-x="365" />
<glyph unicode="&#x200a;" horiz-adv-x="101" />
<glyph unicode="&#x2010;" horiz-adv-x="765" d="M109 412v182h546v-182h-546z" />
<glyph unicode="&#x2011;" horiz-adv-x="765" d="M109 412v182h546v-182h-546z" />
<glyph unicode="&#x2012;" horiz-adv-x="765" d="M109 412v182h546v-182h-546z" />
<glyph unicode="&#x2013;" horiz-adv-x="1214" d="M57 410v196h1100v-196h-1100z" />
<glyph unicode="&#x2014;" horiz-adv-x="1724" d="M63 410v196h1600v-196h-1600z" />
<glyph unicode="&#x2018;" horiz-adv-x="471" d="M94 963q0 83 62 204q67 129 139 224l104 -17l-112 -276q92 -35 92 -133q0 -60 -40.5 -102t-100.5 -42q-63 0 -103.5 40t-40.5 102z" />
<glyph unicode="&#x2019;" horiz-adv-x="471" d="M80 831l113 277q-91 35 -91 131q0 61 41 103t101 42q62 0 101.5 -40t39.5 -101q0 -87 -63 -207q-60 -120 -138 -221z" />
<glyph unicode="&#x201a;" horiz-adv-x="489" d="M86 -303l113 289q-93 35 -93 133q0 63 42 106t102 43q63 0 104 -40.5t41 -102.5q0 -87 -65 -217t-137 -227z" />
<glyph unicode="&#x201c;" horiz-adv-x="819" d="M96 963q0 84 64 206q69 131 139 222l102 -17l-112 -276q90 -35 90 -133q0 -60 -41 -102t-98 -42q-63 0 -103.5 40t-40.5 102zM430 963q0 82 62 206q69 131 139 222l102 -17l-112 -276q92 -35 92 -133q0 -60 -41 -102t-101 -42q-63 0 -102 40t-39 102z" />
<glyph unicode="&#x201d;" horiz-adv-x="819" d="M86 831l113 277q-90 35 -90 131q0 62 40.5 103.5t100.5 41.5q62 0 101.5 -40t39.5 -101q0 -87 -63 -207q-60 -117 -138 -221zM418 831l114 277q-92 35 -92 131q0 61 41 103t101 42q62 0 102.5 -40t40.5 -101q0 -87 -63 -207q-65 -124 -140 -221z" />
<glyph unicode="&#x201e;" horiz-adv-x="829" d="M84 -303l115 289q-95 35 -95 133q0 63 43 106t103 43q63 0 104 -40.5t41 -102.5q0 -87 -65 -217q-62 -126 -140 -227zM426 -303l113 289q-93 35 -93 133q0 63 42 106t102 43q63 0 105 -41t42 -102q0 -87 -65 -217q-62 -126 -140 -227z" />
<glyph unicode="&#x2026;" horiz-adv-x="1460" d="M117 125q0 61 44 104t107 43q60 0 102 -43t42 -104q0 -59 -43 -102t-101 -43q-63 0 -107 42.5t-44 102.5zM586 125q0 61 43.5 104t105.5 43q60 0 103 -43t43 -104q0 -60 -43 -102.5t-103 -42.5q-62 0 -105.5 42.5t-43.5 102.5zM1055 125q0 61 43.5 104t103.5 43 q62 0 105 -43t43 -104q0 -60 -44 -102.5t-104 -42.5t-103.5 42.5t-43.5 102.5z" />
<glyph unicode="&#x202f;" horiz-adv-x="365" />
<glyph unicode="&#x2039;" horiz-adv-x="634" d="M68 412v20l264 385h252l-277 -389l277 -401h-254z" />
<glyph unicode="&#x203a;" horiz-adv-x="634" d="M57 27l277 401l-277 389h250l266 -385v-20l-262 -385h-254z" />
<glyph unicode="&#x205f;" horiz-adv-x="456" />
<glyph unicode="&#x20ac;" d="M66 535v108h866v-108h-488q30 -144 125.5 -227t241.5 -83q142 0 285 64v-248q-137 -55 -310 -55q-260 0 -427 146t-199 403h-94zM66 731v109h98q47 239 207 383q162 149 426 149q138 0 268 -43v-246q-119 45 -238 45q-143 0 -240 -74.5t-134 -213.5h479v-109h-866z" />
<glyph unicode="&#x2122;" horiz-adv-x="1632" d="M72 1251v133h592v-133h-205v-626h-178v626h-209zM729 625v761h27l350 -374l350 374h25v-761h-181v387h-6l-174 -211h-26l-179 207h-4v-383h-182z" />
<glyph unicode="&#x25fc;" horiz-adv-x="911" d="M0 0v911h911v-911h-911z" />
</font>
</defs>
</svg>
